<svg width="50" height="50" viewBox="0 0 50 50" fill="none" xmlns="http://www.w3.org/2000/svg">
<path d="M32.6442 32.8125C32.108 32.8125 31.6727 33.25 31.6727 33.7891C31.6727 34.3281 32.108 34.7656 32.6442 34.7656C33.1805 34.7656 33.6158 34.3281 33.6158 33.7891C33.6158 33.25 33.1805 32.8125 32.6442 32.8125Z" fill="#BC8822"/>
<path d="M11.6587 16.2109C12.1953 16.2109 12.6302 15.7738 12.6302 15.2344V11.3281C12.6302 10.7887 12.1953 10.3516 11.6587 10.3516C11.122 10.3516 10.6871 10.7887 10.6871 11.3281V15.2344C10.6871 15.7738 11.122 16.2109 11.6587 16.2109Z" fill="#BC8822"/>
<path d="M45.8574 23.0469V15.2344C45.8574 12.542 43.6782 10.3516 40.9996 10.3516H35.5589V2.92969C35.5589 1.31416 34.2515 0 32.6442 0H14.5733C12.9661 0 11.6587 1.31416 11.6587 2.92969V6.44531H8.74399C7.13675 6.44531 5.82933 7.75948 5.82933 9.375V10.3516H4.85777C2.17917 10.3516 0 12.542 0 15.2344V45.1172C0 47.8096 2.17917 50 4.85777 50H34.5873C36.9331 50 38.896 48.32 39.3472 46.0938H40.9996C43.6782 46.0938 45.8574 43.9034 45.8574 41.2109V38.6719H46.8289C48.4362 38.6719 49.7436 37.3577 49.7436 35.7422V26.9531C49.7436 24.7993 48.0001 23.0469 45.8574 23.0469ZM47.8005 26.9531C47.8005 28.0319 46.9306 28.9062 45.8574 28.9062V25C46.9287 25 47.8005 25.8762 47.8005 26.9531ZM40.9996 12.3047C42.6068 12.3047 43.9143 13.6189 43.9143 15.2344V28.9062H39.4451V23.0469C39.4451 20.689 37.7737 18.716 35.5589 18.2625V12.3047H40.9996ZM13.6018 2.92969C13.6018 2.39105 14.0374 1.95312 14.5733 1.95312H32.6442C33.1801 1.95312 33.6158 2.39105 33.6158 2.92969V18.1641H29.1466V9.375C29.1466 7.75948 27.8392 6.44531 26.232 6.44531H13.6018V2.92969ZM23.3173 18.1641V8.39844H26.232C26.7678 8.39844 27.2035 8.83636 27.2035 9.375V18.1641H23.3173ZM17.488 18.1641V8.39844H21.3742V18.1641H17.488ZM7.77243 9.375C7.77243 8.83636 8.20812 8.39844 8.74399 8.39844H15.5449V18.1641H7.77243V9.375ZM4.85777 12.3047H5.82933V18.1641H5.06575C3.46002 18.1641 1.94311 16.9952 1.94311 15.2344C1.94311 13.6189 3.25053 12.3047 4.85777 12.3047ZM34.5873 48.0469H4.85777C3.25053 48.0469 1.94311 46.7327 1.94311 45.1172V19.0804C2.81182 19.7308 3.90292 20.1172 5.06575 20.1172H34.5873C36.1946 20.1172 37.502 21.4314 37.502 23.0469V28.9062H30.7011C29.0939 28.9062 27.7865 30.2204 27.7865 31.8359V35.7422C27.7865 37.3577 29.0939 38.6719 30.7011 38.6719H37.502V45.1172C37.502 46.7327 36.1946 48.0469 34.5873 48.0469ZM43.9143 41.2109C43.9143 42.8265 42.6068 44.1406 40.9996 44.1406H39.4451V38.6719H43.9143V41.2109ZM46.8289 36.7188H30.7011C30.1652 36.7188 29.7296 36.2808 29.7296 35.7422V31.8359C29.7296 31.2973 30.1652 30.8594 30.7011 30.8594H45.8574C46.5507 30.8594 47.216 30.677 47.8005 30.3364V35.7422C47.8005 36.2808 47.3648 36.7188 46.8289 36.7188Z" fill="#BC8822"/>
<path d="M40.9996 32.8125H36.5304C35.9938 32.8125 35.5589 33.2497 35.5589 33.7891C35.5589 34.3285 35.9938 34.7656 36.5304 34.7656H40.9996C41.5362 34.7656 41.9711 34.3285 41.9711 33.7891C41.9711 33.2497 41.5362 32.8125 40.9996 32.8125Z" fill="#BC8822"/>
</svg>
