<svg width="50" height="50" viewBox="0 0 50 50" fill="none" xmlns="http://www.w3.org/2000/svg">
<path d="M39.0469 32.8671H41.4265C41.8369 32.8671 42.17 32.534 42.17 32.1232C42.17 31.7127 41.8369 31.3797 41.4265 31.3797H39.0469C38.6364 31.3797 38.3034 31.7127 38.3034 32.1232C38.3034 32.534 38.6364 32.8671 39.0469 32.8671Z" fill="#DEC593"/>
<path d="M49.2565 20.9988H44.5583V18.1099C44.5583 18.1091 44.5583 18.1087 44.5583 18.108V14.492C44.5583 14.4913 44.5583 14.4905 44.5583 14.4901V13.5822C44.5583 11.528 42.8871 9.85641 40.8333 9.85641H27.5734V3.25279C27.5734 1.45912 26.1135 0 24.3195 0H7.95135C6.1573 0 4.69742 1.45912 4.69742 3.25279V15.5216C3.48244 15.6059 2.351 16.1182 1.48125 16.9884C0.52948 17.9401 0.00419617 19.2047 0.000762939 20.5502C0.000762939 20.5547 0 20.5589 0 20.5635V44.944C0 47.7318 2.26822 49.9996 5.056 49.9996H27.7218C28.1322 49.9996 28.4653 49.667 28.4653 49.2561C28.4653 48.8457 28.1322 48.5126 27.7218 48.5126H5.056C3.088 48.5126 1.48697 46.9116 1.48697 44.944V24.1409C2.40211 25.0538 3.66402 25.6191 5.05562 25.6191L33.1356 25.6195C34.742 25.6195 36.0489 26.9264 36.0489 28.5328V45.599C36.0489 47.2054 34.742 48.5126 33.1356 48.5126H30.2002C29.7897 48.5126 29.4567 48.8453 29.4567 49.2561C29.4567 49.6666 29.7897 49.9996 30.2002 49.9996H33.1356C35.5621 49.9996 37.5362 48.0255 37.5362 45.599V43.248H49.2565C49.667 43.248 50 42.915 50 42.5045V21.7422C50 21.3318 49.6674 20.9988 49.2565 20.9988ZM17.8398 20.9988V18.8515H43.071V20.9988H17.8398ZM43.071 13.5822V13.7482H35.9001C35.4897 13.7482 35.1566 14.0812 35.1566 14.492C35.1566 14.9025 35.4897 15.2355 35.9001 15.2355H43.071V17.3645H17.8398V15.2355H33.4217C33.8322 15.2355 34.1652 14.9025 34.1652 14.492C34.1652 14.0812 33.8322 13.7482 33.4217 13.7482H17.8398V13.3522C17.8398 12.2448 18.7405 11.3438 19.8475 11.3438H40.8333C42.0673 11.3438 43.071 12.3478 43.071 13.5822ZM6.18477 3.25279C6.18477 2.2789 6.97708 1.48697 7.95135 1.48697H24.3195C25.2937 1.48697 26.0864 2.27928 26.0864 3.25279V9.85641H25.4826V6.4003C25.4826 5.29251 24.5804 4.39072 23.4718 4.39072H8.79822C7.69005 4.39072 6.78864 5.29251 6.78864 6.4003V9.04465C6.78864 9.45511 7.12128 9.78813 7.53212 9.78813C7.94258 9.78813 8.2756 9.45511 8.2756 9.04465V6.4003C8.2756 6.11229 8.50983 5.87807 8.79822 5.87807H23.4718C23.7606 5.87807 23.9952 6.11229 23.9952 6.4003V9.85641H19.8475C17.9203 9.85641 16.3525 11.4246 16.3525 13.3522V20.9988H13.1737C12.7632 20.9988 12.4302 21.3318 12.4302 21.7426V24.1322L8.2756 24.1318V11.4555C8.2756 11.0451 7.94258 10.7121 7.53212 10.7121C7.12128 10.7121 6.78864 11.0451 6.78864 11.4555V24.1318H6.18477V3.25279ZM1.48735 20.5635C1.48735 19.6102 1.85852 18.7141 2.53258 18.0397C3.12157 17.4511 3.87993 17.0933 4.69742 17.0124V24.1138C2.89764 23.9338 1.48735 22.4102 1.48735 20.5635ZM36.4197 25.6081H41.6134C41.93 27.5394 43.4593 29.0688 45.3911 29.3854V34.8618C43.4593 35.1784 41.93 36.7073 41.6134 38.6391H37.5362V28.5328C37.5362 27.4109 37.1136 26.3863 36.4197 25.6081ZM48.513 41.761H37.5362V40.126H42.2966C42.7074 40.126 43.0405 39.7934 43.0405 39.3826C43.0405 37.6766 44.4283 36.2885 46.1346 36.2885C46.545 36.2885 46.8781 35.9554 46.8781 35.545V28.7022C46.8781 28.2917 46.545 27.9587 46.1346 27.9587C44.4283 27.9587 43.0405 26.5705 43.0405 24.8646C43.0405 24.4537 42.7074 24.1207 42.2966 24.1207L13.9172 24.1322V22.4861H48.513V41.761Z" fill="#DEC593"/>
<path d="M45.4483 25.1484C45.5521 25.4139 45.8206 25.5955 46.1033 25.6069C46.4184 25.6195 46.7148 25.4257 46.8277 25.1316C46.9437 24.8295 46.8472 24.4766 46.5912 24.2786C46.3459 24.0883 46.003 24.0711 45.7394 24.2351C45.4369 24.4236 45.3091 24.8188 45.4483 25.1484Z" fill="#DEC593"/>
<path d="M46.8212 39.0976C46.7007 38.8119 46.4085 38.6234 46.0976 38.6406C45.7928 38.657 45.5257 38.8603 45.4292 39.1495C45.2103 39.8041 45.9721 40.3851 46.5466 40.0009C46.8418 39.8033 46.9494 39.4249 46.8212 39.0976Z" fill="#DEC593"/>
<path d="M33.3725 36.8717C33.3725 34.9037 31.7715 33.3027 29.8035 33.3027C27.8355 33.3027 26.2344 34.9037 26.2344 36.8717C26.2344 38.8393 27.8355 40.4404 29.8035 40.4404C31.7715 40.4404 33.3725 38.8393 33.3725 36.8717ZM27.7218 36.8717C27.7218 35.7235 28.6556 34.7897 29.8035 34.7897C30.9517 34.7897 31.8855 35.7235 31.8855 36.8717C31.8855 38.0196 30.9517 38.9534 29.8035 38.9534C28.6556 38.9534 27.7218 38.0196 27.7218 36.8717Z" fill="#DEC593"/>
</svg>
