<svg width="18" height="23" viewBox="0 0 18 23" fill="none" xmlns="http://www.w3.org/2000/svg">
<path d="M16.7674 15.2918C15.237 15.2918 13.9921 13.3401 13.9921 10.9411C13.9921 8.54198 15.237 6.59019 16.7674 6.59019C17.0111 6.59019 17.2358 6.44418 17.355 6.20837C17.474 5.97256 17.4688 5.68391 17.3414 5.45355L15.5185 2.15841C15.4107 1.96358 15.2283 1.83415 15.0235 1.80735C14.8186 1.78033 14.6142 1.85915 14.4683 2.02076C13.8344 2.72349 12.803 2.72334 12.1691 2.02076C11.8621 1.68045 11.693 1.22779 11.6929 0.746393C11.6928 0.334194 11.3914 0 11.0195 0H6.42122C6.04937 0 5.74789 0.334194 5.74783 0.746393C5.74776 1.22779 5.5786 1.68045 5.27161 2.02076C4.63781 2.72349 3.60632 2.72334 2.97245 2.02076C2.82653 1.85915 2.62169 1.78033 2.41725 1.80735C2.21247 1.83415 2.03005 1.96358 1.92224 2.15841L0.0993739 5.45355C-0.0280986 5.68391 -0.0332837 5.97256 0.0858388 6.20837C0.204894 6.44418 0.429604 6.59019 0.673438 6.59019C2.20378 6.59019 3.44874 8.54198 3.44874 10.9411C3.44874 13.3401 2.20378 15.2918 0.673438 15.2918C0.443812 15.2918 0.230011 15.4216 0.106242 15.636C-0.0175938 15.8504 -0.0342265 16.12 0.0620008 16.3511L1.21154 19.1124C1.33686 19.4134 1.62622 19.5871 1.9219 19.538C1.96964 19.5302 6.72363 18.7849 8.07816 21.7603C8.19162 22.0095 8.42105 22.1678 8.67283 22.1705C8.67498 22.1705 8.67714 22.1705 8.67936 22.1705C8.92865 22.1705 9.15787 22.0177 9.27457 21.7731C10.7306 18.7226 15.4885 19.3216 15.5364 19.328C15.8192 19.3663 16.0928 19.2032 16.2202 18.9208L17.3697 16.3721C17.4741 16.1407 17.4629 15.8659 17.3402 15.6458C17.2175 15.4258 17.0008 15.2918 16.7674 15.2918ZM9.19174 17.3128C9.19174 17.6013 8.9807 17.8353 8.72037 17.8353C8.46004 17.8353 8.24899 17.6013 8.24899 17.3128V16.9768C8.24899 16.6883 8.46004 16.4543 8.72037 16.4543C8.9807 16.4543 9.19174 16.6883 9.19174 16.9768V17.3128ZM9.19174 14.8107C9.19174 15.0993 8.9807 15.3333 8.72037 15.3333C8.46004 15.3333 8.24899 15.0993 8.24899 14.8107V14.1818C8.24899 13.8933 8.46004 13.6593 8.72037 13.6593C8.9807 13.6593 9.19174 13.8933 9.19174 14.1818V14.8107ZM9.19174 12.0158C9.19174 12.3044 8.9807 12.5383 8.72037 12.5383C8.46004 12.5383 8.24899 12.3044 8.24899 12.0158V11.3869C8.24899 11.0983 8.46004 10.8644 8.72037 10.8644C8.9807 10.8644 9.19174 11.0983 9.19174 11.3869V12.0158ZM9.19174 9.22082C9.19174 9.5094 8.9807 9.74335 8.72037 9.74335C8.46004 9.74335 8.24899 9.5094 8.24899 9.22082V8.592C8.24899 8.30341 8.46004 8.06947 8.72037 8.06947C8.9807 8.06947 9.19174 8.30341 9.19174 8.592V9.22082ZM9.19174 6.42597C9.19174 6.71455 8.9807 6.9485 8.72037 6.9485C8.46004 6.9485 8.24899 6.71455 8.24899 6.42597V5.79707C8.24899 5.50849 8.46004 5.27454 8.72037 5.27454C8.9807 5.27454 9.19174 5.50849 9.19174 5.79707V6.42597ZM9.19174 3.63104C9.19174 3.91963 8.9807 4.15357 8.72037 4.15357C8.46004 4.15357 8.24899 3.91963 8.24899 3.63104V3.29513C8.24899 3.00655 8.46004 2.77261 8.72037 2.77261C8.9807 2.77261 9.19174 3.00655 9.19174 3.29513V3.63104Z" fill="#DEC593"/>
</svg>
