<svg width="50" height="50" viewBox="0 0 50 50" fill="none" xmlns="http://www.w3.org/2000/svg">
<path d="M49.9081 11.8482C49.736 11.2082 49.3161 10.6626 48.7417 10.3319C48.1668 9.99951 47.4833 9.9096 46.8422 10.0817C46.2018 10.2542 45.6563 10.6736 45.3255 11.2481L44.9089 11.973C44.5131 11.7456 44.0074 11.8795 43.7759 12.2733L41.6596 15.8807L40.9346 15.4641C40.7426 15.353 40.5139 15.3229 40.2999 15.3807C40.0855 15.4388 39.9033 15.5796 39.793 15.7724C39.5672 16.1707 39.7047 16.6768 40.1014 16.9055L40.8264 17.3221L33.7442 29.595L31.9945 34.2695L31.1613 35.8272C30.6735 36.6759 30.7256 37.7308 31.2947 38.5269L29.42 40.8264L28.8952 39.5103C28.6584 38.9236 28.1104 38.5217 27.4803 38.4724C26.8497 38.4228 26.2455 38.7344 25.9205 39.2767L25.6206 39.7849L25.3375 36.4521C25.2724 35.6637 24.6617 35.0298 23.8765 34.9346C23.091 34.8398 22.3473 35.3105 22.0962 36.0607L20.0466 42.2096C19.9034 42.6445 20.1378 43.1132 20.5714 43.2596C20.6528 43.2975 20.7403 43.3202 20.8298 43.3259C21.1878 43.3272 21.5067 43.0989 21.6215 42.7596L23.6625 36.6108L23.9542 39.9932C24.0145 40.7149 24.5332 41.315 25.2386 41.4785C25.9441 41.6421 26.6739 41.3312 27.0454 40.71L27.3537 40.2015L27.8704 41.5098C28.0897 42.0611 28.5856 42.4545 29.1727 42.542C29.7597 42.6294 30.3488 42.3979 30.7199 41.9346L32.6613 39.4769C32.8761 39.533 33.0974 39.5611 33.3195 39.5603C34.2125 39.5672 35.0416 39.0969 35.494 38.3268L36.3272 36.9354L39.5017 33.0778L46.6587 20.6548L47.3837 21.0714C47.5769 21.1821 47.7177 21.3648 47.775 21.58C47.8328 21.7936 47.8027 22.0214 47.6921 22.213L44.3593 27.9872C44.2336 28.1767 44.1909 28.4095 44.2413 28.6316C44.2918 28.8533 44.4305 29.0449 44.6258 29.1617C44.8178 29.2732 45.0464 29.3033 45.2604 29.2455C45.4748 29.1873 45.6571 29.0466 45.7673 28.8537L49.1001 23.0796C49.4325 22.5047 49.5224 21.8212 49.3499 21.1801C49.1774 20.5397 48.758 19.9941 48.1835 19.6634L47.4585 19.2468L49.5415 15.639C49.7689 15.2432 49.6351 14.7379 49.2417 14.506L49.6583 13.781C49.9996 13.1972 50.0899 12.4999 49.9081 11.8482ZM46.7669 12.0813C46.8772 11.8884 47.0602 11.7473 47.2755 11.6899C47.4895 11.637 47.7156 11.6667 47.9085 11.7733C48.1017 11.8835 48.2425 12.0666 48.3003 12.2814C48.3532 12.4954 48.3235 12.7216 48.2169 12.9145L47.8003 13.6394L46.3503 12.8062L46.7669 12.0813ZM35.4106 35.3443L33.7609 34.3858L34.944 31.2198L37.5685 32.7361L35.4106 35.3443ZM32.911 37.7519C32.5591 37.5066 32.4509 37.0347 32.6613 36.6604L33.0779 35.9358L34.5274 36.769L34.1108 37.4855C33.994 37.6881 33.7979 37.8321 33.5697 37.8829C33.3415 37.9334 33.1027 37.8862 32.911 37.7519ZM38.5184 31.37L35.6356 29.7036L42.3011 18.1553L45.1839 19.8216L38.5184 31.37ZM46.0171 18.3802L43.1343 16.7139L44.8007 13.831L47.6835 15.4974L46.0171 18.3802Z" fill="#DEC593"/>
<path d="M13.1476 37.3353L10.1985 40.2767L8.43199 38.5103C8.10693 38.1873 7.58212 38.1873 7.25706 38.5103C7.09921 38.6669 7.01052 38.8797 7.01052 39.1018C7.01052 39.3239 7.09921 39.5371 7.25706 39.6933L9.02352 41.4598C9.33597 41.7698 9.75826 41.9435 10.1985 41.9431C10.6411 41.9456 11.067 41.7718 11.3815 41.4598L14.3225 38.5103C14.6057 38.1795 14.5865 37.6868 14.279 37.3793C13.971 37.0713 13.4783 37.0522 13.1476 37.3353Z" fill="#DEC593"/>
<path d="M3.33277 39.5766C3.33277 43.4883 6.50361 46.6587 10.4149 46.6587C14.3262 46.6587 17.497 43.4883 17.497 39.5766C17.497 39.1164 17.124 38.7434 16.6638 38.7434C16.2037 38.7434 15.8306 39.1164 15.8306 39.5766C15.8306 42.5676 13.4059 44.9923 10.4149 44.9923C7.42387 44.9923 4.99915 42.5676 4.99915 39.5766C4.99915 36.5855 7.42387 34.1608 10.4149 34.1608C11.5874 34.1576 12.7285 34.538 13.6643 35.2442C14.0324 35.5205 14.5548 35.4456 14.8306 35.0774C15.1069 34.7092 15.0324 34.1873 14.6642 33.911C12.5182 32.3016 9.64679 32.0429 7.24771 33.2422C4.84821 34.4419 3.33277 36.8943 3.33277 39.5766Z" fill="#DEC593"/>
<path d="M29.9949 6.66553C30.455 6.66553 30.8281 6.29287 30.8281 5.83234C30.8281 5.37221 30.455 4.99915 29.9949 4.99915H8.33191C7.87178 4.99915 7.49872 5.37221 7.49872 5.83234V9.1651C7.49872 9.62564 7.87178 9.99829 8.33191 9.99829H29.9949C30.455 9.99829 30.8281 9.62564 30.8281 9.1651C30.8281 8.70498 30.455 8.33191 29.9949 8.33191H9.1651V6.66553H29.9949Z" fill="#DEC593"/>
<path d="M10.8315 11.6647C10.3714 11.6647 9.99829 12.0377 9.99829 12.4979C9.99829 12.9584 10.3714 13.3311 10.8315 13.3311H27.4953C27.9554 13.3311 28.3285 12.9584 28.3285 12.4979C28.3285 12.0377 27.9554 11.6647 27.4953 11.6647H10.8315Z" fill="#DEC593"/>
<path d="M32.4944 17.497H14.1642C13.7041 17.497 13.3311 17.8701 13.3311 18.3302C13.3311 18.7907 13.7041 19.1634 14.1642 19.1634H32.4944C32.9546 19.1634 33.3276 18.7907 33.3276 18.3302C33.3276 17.8701 32.9546 17.497 32.4944 17.497Z" fill="#DEC593"/>
<path d="M24.1625 23.3294C24.1625 22.8692 23.7895 22.4962 23.3294 22.4962H6.66553C6.2054 22.4962 5.83234 22.8692 5.83234 23.3294C5.83234 23.7899 6.2054 24.1625 6.66553 24.1625H23.3294C23.7895 24.1625 24.1625 23.7899 24.1625 23.3294Z" fill="#DEC593"/>
<path d="M32.4945 22.4962H26.6621C26.202 22.4962 25.8289 22.8692 25.8289 23.3294C25.8289 23.7899 26.202 24.1625 26.6621 24.1625H32.4945C32.9546 24.1625 33.3276 23.7899 33.3276 23.3294C33.3276 22.8692 32.9546 22.4962 32.4945 22.4962Z" fill="#DEC593"/>
<path d="M14.9974 28.3285C15.4576 28.3285 15.8306 27.9558 15.8306 27.4953C15.8306 27.0352 15.4576 26.6621 14.9974 26.6621H6.66553C6.2054 26.6621 5.83234 27.0352 5.83234 27.4953C5.83234 27.9558 6.2054 28.3285 6.66553 28.3285H14.9974Z" fill="#DEC593"/>
<path d="M18.3302 28.3285H24.1625C24.6227 28.3285 24.9957 27.9558 24.9957 27.4953C24.9957 27.0352 24.6227 26.6621 24.1625 26.6621H18.3302C17.8701 26.6621 17.497 27.0352 17.497 27.4953C17.497 27.9558 17.8701 28.3285 18.3302 28.3285Z" fill="#DEC593"/>
<path d="M37.4936 38.3268C37.0335 38.3268 36.6604 38.6999 36.6604 39.16V47.4919C36.6604 47.9524 36.2873 48.3251 35.8272 48.3251H2.49957C2.03945 48.3251 1.66638 47.9524 1.66638 47.4919V2.49957C1.66638 2.03945 2.03945 1.66638 2.49957 1.66638H35.8272C36.2873 1.66638 36.6604 2.03945 36.6604 2.49957V18.1471C36.6604 18.6073 37.0335 18.9803 37.4936 18.9803C37.9537 18.9803 38.3268 18.6073 38.3268 18.1471V2.49957C38.3268 1.11919 37.2076 0 35.8272 0H2.49957C1.11919 0 0 1.11919 0 2.49957V47.4919C0 48.8727 1.11919 49.9915 2.49957 49.9915H35.8272C37.2076 49.9915 38.3268 48.8727 38.3268 47.4919V39.16C38.3268 38.6999 37.9537 38.3268 37.4936 38.3268Z" fill="#DEC593"/>
</svg>
