<svg width="24" height="23" viewBox="0 0 24 23" fill="#DEC593" xmlns="http://www.w3.org/2000/svg">
<path d="M18.4995 1.66269C18.7755 1.66269 18.9996 1.91111 18.9996 2.21707C18.9996 2.52304 18.7755 2.77122 18.4995 2.77122H-0.000488281V4.43414H23.9995V1.66269C23.9995 0.74441 23.2551 0 22.3368 0H1.6622C0.743921 0 -0.000488281 0.74441 -0.000488281 1.66269H18.4995Z" fill="#DEC593"/>
<path d="M3.49937 7.75986H-0.000488281V5.5426H23.9995V7.75986V8.86836V10.531H-0.000488281V8.86836H3.49937C3.77538 8.86836 3.99947 8.61995 3.99947 8.31399C3.99947 8.00803 3.77538 7.75986 3.49937 7.75986Z" fill="#DEC593"/>
<path d="M23.9995 14.4106H20.4997C20.2236 14.4106 19.9996 14.1625 19.9996 13.8565C19.9996 13.5506 20.2236 13.3021 20.4997 13.3021H23.9995V11.6395H-0.000488281V16.6279H23.9995V14.4106Z" fill="#DEC593"/>
<path d="M5.49954 20.5078C5.22354 20.5078 4.99945 20.2594 4.99945 19.9534C4.99945 19.6475 5.22354 19.3993 5.49954 19.3993H23.9995V17.7364H-0.000488281C-0.000488281 20.2365 -0.000488281 20.5078 -0.000488281 20.5078C-0.000488281 21.4261 0.743911 22.1705 1.66217 22.1705H22.3368C23.2551 22.1705 23.9995 21.4261 23.9995 20.5078H5.49954Z" fill="#DEC593"/>
</svg>
