<svg width="27" height="23" viewBox="0 0 27 23" fill="none" xmlns="http://www.w3.org/2000/svg">
<path d="M24.5 3.65287H18.3516V2.01098C18.3516 0.904942 17.5364 0 16.5375 0H10.1898C9.19206 0 8.37571 0.904942 8.37571 2.01098V3.65287H2.22733C1.00224 3.65287 0 4.76388 0 6.12191V19.7014C0 21.0607 1.00224 22.1705 2.22733 22.1705H24.5002C25.7253 22.1705 26.7275 21.0607 26.7275 19.7014V6.12191C26.7274 4.76636 25.7251 3.65287 24.5 3.65287ZM17.444 3.65287H9.28332V2.45796C9.28332 1.90568 9.73104 1.45796 10.2833 1.45796H16.444C16.9963 1.45796 17.444 1.90568 17.444 2.45796V3.65287Z" fill="#DEC593"/>
</svg>
