<svg width="43" height="50" viewBox="0 0 43 50" fill="none" xmlns="http://www.w3.org/2000/svg">
<path d="M41.8665 8.63389C34.9871 6.74893 28.0673 3.81388 21.8551 0.146118C21.5251 -0.0487059 21.1157 -0.0487059 20.7858 0.146118C14.3944 3.91925 7.84851 6.69552 0.773826 8.63389C0.316796 8.75899 0 9.17442 0 9.64834V20.395C0 31.4617 5.10536 38.787 9.38835 42.9834C13.9993 47.5015 19.3704 50 21.3205 50C23.2703 50 28.6414 47.5015 33.2524 42.9834C37.5353 38.7871 42.6403 31.4618 42.6403 20.395V9.64824C42.6403 9.17442 42.3235 8.75899 41.8665 8.63389ZM40.5368 20.3949C40.5368 30.7311 35.775 37.5665 31.7801 41.4808C27.2458 45.9236 22.3979 47.8963 21.3205 47.8963C20.243 47.8963 15.3948 45.9236 10.8604 41.4808C6.86561 37.5664 2.10361 30.7311 2.10361 20.3949V10.4467C8.86902 8.52578 15.1696 5.84503 21.3206 2.27053C27.3181 5.75021 33.933 8.56426 40.5368 10.4463V20.3949Z" fill="#BC8822"/>
<path d="M11.9977 10.329C11.7848 9.78847 11.1742 9.52295 10.6336 9.73593C8.75467 10.4763 6.82616 11.1577 4.90165 11.7614C4.46308 11.8991 4.16464 12.3054 4.16464 12.7649V16.8265C4.16464 17.4074 4.63564 17.8783 5.2164 17.8783C5.79716 17.8783 6.26815 17.4074 6.26815 16.8265V13.5336C7.99461 12.975 9.71922 12.3571 11.4047 11.693C11.9452 11.4802 12.2107 10.8695 11.9977 10.329Z" fill="#BC8822"/>
<path d="M13.9957 10.5285C14.1368 10.5285 14.28 10.5001 14.4174 10.4401L14.4368 10.4317C14.9689 10.1985 15.2085 9.5791 14.9753 9.04716C14.7419 8.51504 14.119 8.27432 13.5875 8.50732L13.5705 8.51465C13.038 8.74717 12.7976 9.36611 13.0301 9.89834C13.2027 10.2935 13.5899 10.5285 13.9957 10.5285Z" fill="#BC8822"/>
<path d="M33.8516 33.9143C33.3655 33.5966 32.7138 33.7332 32.3957 34.2195C31.529 35.546 30.5122 36.8163 29.3731 37.9948C28.4364 38.9637 27.4214 39.8668 26.3563 40.6788C25.8944 41.031 25.8056 41.6909 26.1576 42.153C26.3648 42.4243 26.6779 42.5671 26.9947 42.5671C27.2172 42.5671 27.4413 42.4969 27.6317 42.3516C28.7807 41.4755 29.8754 40.5016 30.8854 39.4569C32.1169 38.183 33.2175 36.808 34.1567 35.3701C34.4746 34.8837 34.3378 34.232 33.8516 33.9143Z" fill="#BC8822"/>
<path d="M23.9137 42.3283L23.8534 42.3639C23.3507 42.655 23.179 43.2983 23.47 43.801C23.665 44.1379 24.018 44.326 24.3812 44.326C24.5599 44.326 24.7414 44.2804 24.9071 44.1842L24.9767 44.1433C25.478 43.8497 25.6463 43.2055 25.3528 42.7042C25.059 42.2031 24.4147 42.0351 23.9137 42.3283Z" fill="#BC8822"/>
<path d="M14.1512 22.8534C13.5054 22.2075 12.6465 21.852 11.733 21.852C10.8195 21.852 9.96054 22.2076 9.31445 22.8534C7.98115 24.187 7.98115 26.3569 9.31445 27.6904L15.525 33.9007C16.1709 34.5464 17.0298 34.902 17.9433 34.902C18.8569 34.902 19.7158 34.5464 20.3618 33.9005L33.3267 20.9355C34.6599 19.6016 34.6599 17.432 33.3265 16.0989C32.6806 15.453 31.8217 15.0975 30.908 15.0975C29.9945 15.0975 29.1356 15.4531 28.4896 16.0989L17.9432 26.6453L14.1512 22.8534ZM29.9771 17.5864C30.2256 17.3379 30.5564 17.2011 30.9081 17.2011C31.2601 17.2011 31.5906 17.3379 31.8393 17.5864C32.3525 18.0996 32.3525 18.9349 31.8391 19.4483L18.8744 32.4131C18.6259 32.6617 18.2951 32.7985 17.9433 32.7985C17.5916 32.7985 17.2608 32.6617 17.0122 32.4131L10.8019 26.203C10.2885 25.6896 10.2885 24.8543 10.8017 24.3411C11.0503 24.0925 11.381 23.9555 11.7329 23.9555C12.0848 23.9555 12.4153 24.0924 12.6639 24.3409L17.1995 28.8766C17.3969 29.0738 17.6642 29.1846 17.9432 29.1846C18.2222 29.1846 18.4896 29.0739 18.6868 28.8766L29.9771 17.5864Z" fill="#BC8822"/>
</svg>
