<svg width="50" height="42" viewBox="0 0 50 42" fill="none" xmlns="http://www.w3.org/2000/svg">
<path d="M43.1641 17.4169C42.625 17.4169 42.1875 17.8351 42.1875 18.3502C42.1875 18.8653 42.625 19.2834 43.1641 19.2834C43.7031 19.2834 44.1406 18.8653 44.1406 18.3502C44.1406 17.8351 43.7031 17.4169 43.1641 17.4169Z" fill="#BC8822"/>
<path d="M26.9531 8.08429C27.4921 8.08429 27.9297 7.66614 27.9297 7.15102C27.9297 6.63589 27.4921 6.21774 26.9531 6.21774C26.4141 6.21774 25.9766 6.63589 25.9766 7.15102C25.9766 7.66614 26.4141 8.08429 26.9531 8.08429Z" fill="#BC8822"/>
<path d="M47.0703 11.8173H33.7891V3.41798C33.7891 1.87409 32.4749 0.618195 30.8594 0.618195H2.92969C1.31416 0.618195 0 1.87409 0 3.41798V22.0832C0 23.6271 1.31416 24.883 2.92969 24.883H5.85938V29.5493C5.85938 30.3852 6.91643 30.7921 7.5264 30.2091L13.0997 24.883H16.2109V33.2824C16.2109 34.8262 17.5251 36.0821 19.1406 36.0821H36.9003L42.4736 41.4083C43.0843 41.9919 44.1406 41.5825 44.1406 40.7484V36.0821H47.0703C48.6858 36.0821 50 34.8262 50 33.2824V14.6171C50 13.0732 48.6858 11.8173 47.0703 11.8173ZM6.83594 13.6828H16.3788C16.2704 13.9751 16.2109 14.289 16.2109 14.616V17.4169H6.83594C6.29654 17.4169 5.85938 17.8347 5.85938 18.3502C5.85938 18.8656 6.29654 19.2834 6.83594 19.2834H16.2109V23.0165H12.6953C12.4363 23.0165 12.188 23.1149 12.0049 23.2899L7.8125 27.296V23.9497C7.8125 23.4343 7.37534 23.0165 6.83594 23.0165H2.92969C2.39105 23.0165 1.95312 22.598 1.95312 22.0832V3.41798C1.95312 2.90323 2.39105 2.48472 2.92969 2.48472H30.8594C31.398 2.48472 31.8359 2.90323 31.8359 3.41798V11.8173C30.4619 11.8173 8.2119 11.8173 6.83594 11.8173C6.29654 11.8173 5.85938 12.2351 5.85938 12.7506C5.85938 13.2661 6.29654 13.6828 6.83594 13.6828ZM48.0469 33.2824C48.0469 33.7971 47.6089 34.2156 47.0703 34.2156H43.1641C42.6247 34.2156 42.1875 34.6334 42.1875 35.1489V38.4951L37.9951 34.489C37.812 34.314 37.5637 34.2156 37.3047 34.2156H19.1406C18.602 34.2156 18.1641 33.7967 18.1641 33.2824V14.6171C18.1641 14.1024 18.602 13.6839 19.1406 13.6839H47.0703C47.6089 13.6839 48.0469 14.1024 48.0469 14.6171V33.2824Z" fill="#BC8822"/>
<path d="M6.83594 8.08429H23.0469C23.5863 8.08429 24.0234 7.6665 24.0234 7.15102C24.0234 6.63553 23.5863 6.21774 23.0469 6.21774H6.83594C6.29654 6.21774 5.85938 6.63553 5.85938 7.15102C5.85938 7.6665 6.29654 8.08429 6.83594 8.08429Z" fill="#BC8822"/>
<path d="M23.0469 19.2834H39.2578C39.7972 19.2834 40.2344 18.8657 40.2344 18.3502C40.2344 17.8347 39.7972 17.4169 39.2578 17.4169H23.0469C22.5075 17.4169 22.0703 17.8347 22.0703 18.3502C22.0703 18.8657 22.5075 19.2834 23.0469 19.2834Z" fill="#DEC593"/>
<path d="M43.1641 23.0165H23.0469C22.5075 23.0165 22.0703 23.4343 22.0703 23.9498C22.0703 24.4652 22.5075 24.883 23.0469 24.883H43.1641C43.7035 24.883 44.1406 24.4652 44.1406 23.9498C44.1406 23.4343 43.7035 23.0165 43.1641 23.0165Z" fill="#DEC593"/>
<path d="M43.1641 28.6161H23.0469C22.5075 28.6161 22.0703 29.0339 22.0703 29.5494C22.0703 30.0648 22.5075 30.4826 23.0469 30.4826H43.1641C43.7035 30.4826 44.1406 30.0648 44.1406 29.5494C44.1406 29.0339 43.7035 28.6161 43.1641 28.6161Z" fill="#DEC593"/>
</svg>
