<svg width="28" height="28" viewBox="0 0 28 28" fill="none" xmlns="http://www.w3.org/2000/svg">
<path fill-rule="evenodd" clip-rule="evenodd" d="M12.4754 9.1173C13.1662 8.18636 13.4139 7.20522 12.6326 6.33918C10.8793 3.88588 9.70019 2.36876 8.96059 1.63815C7.55451 0.249174 5.24149 0.437055 4.02372 1.63696C3.36965 2.28145 3.14822 2.50277 2.47662 3.18491C-1.26425 6.92779 1.01713 14.8401 7.08185 20.9108C13.1452 26.9801 21.0568 29.2627 24.8055 25.5119C25.4252 24.9145 25.9499 24.3895 26.3637 23.9521C27.5571 22.6907 27.7383 20.4797 26.3559 19.0433C25.6471 18.3069 24.2004 17.1847 21.6439 15.356C20.8609 14.6559 19.9325 14.8076 19.0814 15.366C18.672 15.6346 18.374 15.9063 17.8114 16.4695L16.7897 17.4917C16.6552 17.6264 14.828 16.7113 13.0543 14.9359C11.2796 13.1595 10.3652 11.3322 10.4991 11.1983C10.7753 10.9221 11.1161 10.5811 11.5215 10.1753C11.7 9.99666 11.7853 9.91015 11.8948 9.79513C12.1228 9.55549 12.3116 9.33802 12.4754 9.1173ZM18.6743 19.3774L19.6962 18.3549C20.0058 18.045 20.2065 17.8544 20.3697 17.723C22.6093 19.3313 23.9063 20.3426 24.4361 20.893C24.7542 21.2235 24.7047 21.8266 24.4282 22.1188C24.0456 22.5233 23.5484 23.0207 22.9383 23.6092C20.5143 26.0342 14.1279 24.1917 8.96684 19.0256C3.8042 13.8579 1.96251 7.47049 4.36826 5.06342C5.03715 4.38407 5.24907 4.17226 5.89381 3.53698C6.13555 3.29878 6.79403 3.24529 7.0881 3.53579C7.65753 4.09829 8.71379 5.45076 10.2676 7.61521C10.1872 7.71507 10.0867 7.82793 9.96445 7.95643C9.87471 8.05074 9.79995 8.12652 9.63651 8.29012C9.23143 8.6956 8.89097 9.03625 8.61515 9.31204C6.87762 11.0494 8.35736 14.0064 11.1693 16.8211C13.9793 19.6339 16.9374 21.1153 18.6743 19.3774Z" fill="#BC8822"/>
</svg>
