<svg width="50" height="49" viewBox="0 0 50 49" fill="none" xmlns="http://www.w3.org/2000/svg">
<path d="M23.0536 34.2177C22.8721 34.0433 22.6201 33.9444 22.3633 33.9444C22.1064 33.9444 21.8545 34.0433 21.6729 34.2177C21.4912 34.3911 21.3867 34.6308 21.3867 34.877C21.3867 35.1223 21.4911 35.3629 21.6729 35.5364C21.8545 35.7098 22.1064 35.8096 22.3633 35.8096C22.6201 35.8096 22.8721 35.7098 23.0536 35.5364C23.2353 35.3629 23.3398 35.1223 23.3398 34.877C23.3398 34.6317 23.2354 34.3911 23.0536 34.2177Z" fill="#BC8822"/>
<path d="M43.75 25.9269C43.2108 25.9269 42.7735 26.3444 42.7735 26.8595V30.961H25.9766V28.659C25.9766 25.1127 23.1842 22.1795 19.5894 21.7541C20.2998 20.9168 20.7267 19.8515 20.7267 18.6923V12.1315C20.7267 11.6164 20.2894 11.1989 19.7501 11.1989H14.6405C12.3704 11.1989 10.5235 12.9626 10.5235 15.1305V18.6923C10.5235 19.8514 10.9503 20.9167 11.6608 21.7541C8.06582 22.1796 5.27344 25.1128 5.27344 28.6591V30.9611H1.95313V8.55582C1.95313 8.15705 2.29502 7.83269 2.71533 7.83269H23.0144C23.5536 7.83269 23.9909 7.41517 23.9909 6.90009C23.9909 6.38502 23.5536 5.9675 23.0144 5.9675H2.71533C1.21816 5.9675 0 7.12858 0 8.55582V36.2065C0 37.6338 1.21816 38.7948 2.71533 38.7948H17.5762V43.1029C15.1126 43.3412 13.1836 45.3334 13.1836 47.7478C13.1836 48.2628 13.6209 48.6804 14.1602 48.6804H30.5664C31.1057 48.6804 31.543 48.2628 31.543 47.7478C31.543 45.3335 29.614 43.3413 27.1505 43.1029V38.7948H42.0114C43.5085 38.7948 44.7267 37.6338 44.7267 36.2065V26.8595C44.7266 26.3445 44.2893 25.9269 43.75 25.9269ZM12.4766 15.1307C12.4766 13.9913 13.4473 13.0643 14.6404 13.0643H18.7734V14.5532C18.7734 15.293 18.1433 15.8948 17.3686 15.8948H12.4766V15.1307ZM12.4766 17.76H17.3687C17.8701 17.76 18.3458 17.6538 18.7735 17.4647V18.6925H18.7734C18.7734 20.3504 17.361 21.6992 15.625 21.6992C13.889 21.6992 12.4766 20.3504 12.4766 18.6925V17.76ZM16.7646 23.5644L15.625 24.6526L14.4855 23.5644H16.7646ZM7.22657 28.6591C7.22657 26.1032 9.20801 23.9813 11.7809 23.6194L14.9344 26.6309C15.1251 26.8131 15.375 26.9041 15.6249 26.9041C15.8748 26.9041 16.1247 26.8131 16.3154 26.6309L19.469 23.6194C22.042 23.9813 24.0235 26.1032 24.0235 28.6591V30.9611H7.22657V28.6591ZM29.4228 46.8152H15.3036C15.7069 45.7263 16.7957 44.9441 18.0725 44.9441H18.5527H26.1739H26.654C27.9307 44.9441 29.0194 45.7262 29.4228 46.8152ZM19.5293 43.0789V38.7948H25.1974V43.0789H19.5293ZM42.7735 36.2065C42.7735 36.6052 42.4316 36.9297 42.0113 36.9297H2.71533C2.29502 36.9297 1.95313 36.6052 1.95313 36.2065V32.8262H42.7735V36.2065Z" fill="#BC8822"/>
<path d="M44.4403 22.687C44.2588 22.5136 44.0068 22.4138 43.75 22.4138C43.4932 22.4138 43.2412 22.5136 43.0596 22.687C42.8779 22.8614 42.7734 23.1011 42.7734 23.3464C42.7734 23.5926 42.8778 23.8323 43.0596 24.0057C43.2412 24.1801 43.4932 24.279 43.75 24.279C44.0068 24.279 44.2588 24.1801 44.4403 24.0057C44.622 23.8323 44.7266 23.5926 44.7266 23.3464C44.7266 23.1011 44.6221 22.8605 44.4403 22.687Z" fill="#BC8822"/>
<path d="M43.75 5.31653H36.4258C35.8865 5.31653 35.4492 5.73405 35.4492 6.24913C35.4492 6.76421 35.8865 7.18173 36.4258 7.18173H43.75C44.2893 7.18173 44.7266 6.76421 44.7266 6.24913C44.7266 5.73405 44.2893 5.31653 43.75 5.31653Z" fill="#BC8822"/>
<path d="M33.1122 5.58978C32.9307 5.41632 32.6787 5.31653 32.4219 5.31653C32.165 5.31653 31.9131 5.41632 31.7314 5.58978C31.5498 5.76324 31.4453 6.00386 31.4453 6.24913C31.4453 6.4944 31.5497 6.73502 31.7314 6.90848C31.9132 7.08194 32.165 7.18173 32.4219 7.18173C32.6787 7.18173 32.9307 7.08194 33.1122 6.90848C33.2938 6.73502 33.3984 6.4944 33.3984 6.24913C33.3984 6.00386 33.2939 5.76324 33.1122 5.58978Z" fill="#DEC593"/>
<path d="M43.75 9.41995H32.4219C31.8826 9.41995 31.4453 9.83748 31.4453 10.3526C31.4453 10.8676 31.8826 11.2852 32.4219 11.2852H43.75C44.2893 11.2852 44.7266 10.8676 44.7266 10.3526C44.7266 9.83748 44.2893 9.41995 43.75 9.41995Z" fill="#BC8822"/>
<path d="M43.75 13.5234H32.4219C31.8826 13.5234 31.4453 13.9409 31.4453 14.456C31.4453 14.9711 31.8826 15.3886 32.4219 15.3886H43.75C44.2893 15.3886 44.7266 14.9711 44.7266 14.456C44.7266 13.9409 44.2893 13.5234 43.75 13.5234Z" fill="#BC8822"/>
<path d="M45.1172 0.933319H31.0547C28.3623 0.933319 26.1719 3.02513 26.1719 5.5963V15.5751C26.1719 17.9676 28.0684 19.9451 30.5013 20.2083V22.6316C30.5013 23.0088 30.7393 23.3489 31.1041 23.4933C31.2249 23.5411 31.3519 23.5643 31.4776 23.5643C31.7318 23.5643 31.9815 23.4695 32.1684 23.2912L35.3653 20.238H45.1172C47.8096 20.238 50 18.1462 50 15.5751V5.5963C50 3.02513 47.8096 0.933319 45.1172 0.933319ZM48.0469 15.5751C48.0469 17.1178 46.7326 18.3729 45.1172 18.3729H34.9609C34.702 18.3729 34.4536 18.4711 34.2704 18.646L32.4544 20.3803V19.3054C32.4544 18.7904 32.0171 18.3729 31.4778 18.3729H31.0547C29.4393 18.3729 28.125 17.1178 28.125 15.5751V5.5963C28.125 4.0536 29.4393 2.79851 31.0547 2.79851H45.1172C46.7326 2.79851 48.0469 4.0536 48.0469 5.5963V15.5751Z" fill="#DEC593"/>
</svg>
