<svg width="24" height="31" viewBox="0 0 24 31" fill="none" xmlns="http://www.w3.org/2000/svg">
<path fill-rule="evenodd" clip-rule="evenodd" d="M12 30.1034L12.877 29.3377C20.2516 22.8983 24 17.2757 24 12.3333C24 5.3342 18.5373 0.333313 12 0.333313C5.46274 0.333313 0 5.3342 0 12.3333C0 17.2757 3.74841 22.8983 11.123 29.3377L12 30.1034ZM12 26.5512C5.74215 20.9114 2.66667 16.1323 2.66667 12.3333C2.66667 6.86212 6.88549 2.99998 12 2.99998C17.1145 2.99998 21.3333 6.86212 21.3333 12.3333C21.3333 16.1323 18.2579 20.9114 12 26.5512ZM12 5.66665C15.6819 5.66665 18.6667 8.65141 18.6667 12.3333C18.6667 16.0152 15.6819 19 12 19C8.3181 19 5.33333 16.0152 5.33333 12.3333C5.33333 8.65141 8.3181 5.66665 12 5.66665ZM8 12.3333C8 10.1242 9.79086 8.33331 12 8.33331C14.2091 8.33331 16 10.1242 16 12.3333C16 14.5425 14.2091 16.3333 12 16.3333C9.79086 16.3333 8 14.5425 8 12.3333Z" fill="#BC8822"/>
</svg>
