<svg width="50" height="45" viewBox="0 0 50 45" fill="none" xmlns="http://www.w3.org/2000/svg">
<path d="M46.6797 21.898V21.418C46.6797 16.5539 44.8647 11.826 41.5693 8.10523C38.3136 4.42942 33.8055 1.93612 28.8753 1.08451C28.3441 0.992922 27.8363 1.32867 27.7402 1.83448C27.6441 2.34038 27.9963 2.82468 28.5271 2.91637C37.9137 4.53767 44.7266 12.3187 44.7266 21.418V21.698H42.7734V21.418C42.7734 12.0768 34.8003 4.47708 25 4.47708C15.1997 4.47708 7.22656 12.0768 7.22656 21.418V21.6973H5.27344V21.418C5.27344 12.2006 12.1896 4.40224 21.7186 2.87551C22.2504 2.79024 22.6091 2.31022 22.5196 1.8032C22.4302 1.29628 21.9275 0.95392 21.3946 1.03956C16.4022 1.8395 11.8284 4.31483 8.51572 8.00963C5.16553 11.7465 3.32031 16.5084 3.32031 21.418V21.8973C1.39932 22.4643 0 24.1734 0 26.1883V32.4717C0 34.948 2.11367 36.9627 4.71172 36.9627H7.45322C7.96699 37.7712 8.89883 38.3128 9.96084 38.3128C11.5763 38.3128 12.8905 37.0601 12.8905 35.5203V23.1404C12.8905 21.6006 11.5763 20.3479 9.96084 20.3479C9.70264 20.3479 9.45234 20.3802 9.21377 20.4403C9.74434 12.5796 16.6213 6.33872 25 6.33872C33.3787 6.33872 40.2557 12.5796 40.7861 20.4403C40.5475 20.3802 40.2972 20.3479 40.0391 20.3479C38.4236 20.3479 37.1094 21.6006 37.1094 23.1404V25.4642C37.1094 25.9782 37.5467 26.395 38.0859 26.395C38.6252 26.395 39.0625 25.9782 39.0625 25.4642V23.1404C39.0625 22.6271 39.5006 22.2096 40.0391 22.2096C40.5775 22.2096 41.0156 22.6271 41.0156 23.1404V35.1941V35.5203C41.0156 36.0336 40.5775 36.4511 40.0391 36.4511C39.5006 36.4511 39.0625 36.0336 39.0625 35.5203V33.3762C39.0625 32.8622 38.6252 32.4453 38.0859 32.4453C37.5467 32.4453 37.1094 32.8622 37.1094 33.3762V35.5203C37.1094 37.0601 38.4236 38.3128 40.0391 38.3128C40.3814 38.3128 40.71 38.256 41.0156 38.1527V38.7594C41.0156 39.7672 40.1554 40.5871 39.098 40.5871H30.1391C29.7211 39.2949 28.4566 38.3532 26.9655 38.3532H23.0593C21.2284 38.3532 19.739 39.7729 19.739 41.518C19.739 43.2631 21.2284 44.6827 23.0593 44.6827H26.9655C28.4566 44.6827 29.7211 43.741 30.1391 42.4488H39.098C41.2323 42.4488 42.9688 40.7938 42.9688 38.7594V36.9634H45.2883C47.8863 36.9634 50 34.9488 50 32.4724V26.189C50 24.1742 48.6007 22.4651 46.6797 21.898ZM7.03125 35.1011H4.71172C3.19063 35.1011 1.95312 33.9215 1.95312 32.4717V26.1883C1.95312 24.7384 3.19063 23.5589 4.71172 23.5589H7.03125V35.1011ZM9.96094 22.2096C10.4994 22.2096 10.9375 22.6271 10.9375 23.1404V35.5203C10.9375 36.0336 10.4994 36.4511 9.96094 36.4511C9.42246 36.4511 8.98438 36.0336 8.98438 35.5203V23.1404C8.98438 22.6271 9.42246 22.2096 9.96094 22.2096ZM26.9655 42.8211H23.0593C22.3054 42.8211 21.6921 42.2365 21.6921 41.518C21.6921 40.7994 22.3054 40.2148 23.0593 40.2148H26.9655C27.7194 40.2148 28.3327 40.7994 28.3327 41.518C28.3327 42.2365 27.7194 42.8211 26.9655 42.8211ZM48.0469 32.4724C48.0469 33.9223 46.8094 35.1018 45.2883 35.1018H42.9688V23.5596H45.2883C46.8094 23.5596 48.0469 24.7392 48.0469 26.189V32.4724Z" fill="#BC8822"/>
<path d="M25.0851 0.753328L25.0002 0.753235C24.4608 0.753235 24.0234 1.17005 24.0234 1.68425C24.0234 2.19845 24.4608 2.61526 25.0002 2.61526L25.0782 2.61536C25.0794 2.61536 25.0805 2.61536 25.0817 2.61536C25.6195 2.61536 26.0565 2.20068 26.0584 1.6876C26.0604 1.1734 25.6245 0.755097 25.0851 0.753328Z" fill="#BC8822"/>
<path d="M38.7766 28.6722C38.595 28.499 38.343 28.3994 38.0861 28.3994C37.8292 28.3994 37.5772 28.4989 37.3956 28.6722C37.2139 28.8455 37.1094 29.0856 37.1094 29.3304C37.1094 29.5753 37.2138 29.8155 37.3956 29.9886C37.5772 30.1619 37.8292 30.2615 38.0861 30.2615C38.343 30.2615 38.595 30.1619 38.7766 29.9886C38.9583 29.8155 39.0629 29.5753 39.0629 29.3304C39.0629 29.0856 38.9584 28.8454 38.7766 28.6722Z" fill="#BC8822"/>
<path d="M30.6795 17.139H19.3205C16.8521 17.139 14.8438 19.0533 14.8438 21.4061V26.8515C14.8438 29.2043 16.852 31.1186 19.3205 31.1186H22.0246L24.2302 33.742C24.4139 33.9605 24.691 34.0886 24.9848 34.0907C24.9872 34.0907 24.9898 34.0907 24.9923 34.0907C25.2832 34.0907 25.5592 33.967 25.7447 33.7532L28.0312 31.1186H30.6795C33.1479 31.1186 35.1562 29.2044 35.1562 26.8515V21.4061C35.1562 19.0533 33.148 17.139 30.6795 17.139ZM33.2031 26.8515C33.2031 28.1779 32.071 29.257 30.6795 29.257H27.5716C27.2806 29.257 27.0046 29.3807 26.8191 29.5945L25.0043 31.6857L23.2556 29.6057C23.0702 29.3853 22.7898 29.257 22.4935 29.257H19.3205C17.929 29.257 16.7969 28.1779 16.7969 26.8515V21.4061C16.7969 20.0797 17.929 19.0007 19.3205 19.0007H30.6795C32.071 19.0007 33.2031 20.0798 33.2031 21.4061V26.8515Z" fill="#DEC593"/>
<path d="M21.4066 23.9362C21.2239 23.763 20.9729 23.6635 20.716 23.6635C20.4591 23.6635 20.2071 23.763 20.0254 23.9362C19.8428 24.1094 19.7393 24.3496 19.7393 24.5944C19.7393 24.8393 19.8428 25.0795 20.0254 25.2525C20.2071 25.4257 20.4591 25.5254 20.716 25.5254C20.9729 25.5254 21.2239 25.4258 21.4066 25.2525C21.5882 25.0795 21.6928 24.8393 21.6928 24.5944C21.6928 24.3496 21.5883 24.1094 21.4066 23.9362Z" fill="#BC8822"/>
<path d="M25.7044 23.9362C25.5228 23.7631 25.2708 23.6635 25.0139 23.6635C24.756 23.6635 24.505 23.763 24.3233 23.9362C24.1406 24.1094 24.0371 24.3496 24.0371 24.5944C24.0371 24.8393 24.1406 25.0795 24.3233 25.2525C24.505 25.4258 24.756 25.5254 25.0139 25.5254C25.2708 25.5254 25.5228 25.4258 25.7044 25.2525C25.886 25.0795 25.9906 24.8393 25.9906 24.5944C25.9906 24.3496 25.8861 24.1094 25.7044 23.9362Z" fill="#DEC593"/>
<path d="M30.0013 23.9362C29.8187 23.7631 29.5676 23.6635 29.3107 23.6635C29.0529 23.6635 28.8019 23.763 28.6202 23.9362C28.4375 24.1094 28.334 24.3496 28.334 24.5944C28.334 24.8402 28.4375 25.0795 28.6202 25.2525C28.8019 25.4258 29.0529 25.5254 29.3107 25.5254C29.5676 25.5254 29.8187 25.4258 30.0013 25.2525C30.1829 25.0795 30.2875 24.8393 30.2875 24.5944C30.2875 24.3496 30.183 24.1094 30.0013 23.9362Z" fill="#BC8822"/>
</svg>
