<svg width="209" height="78" viewBox="0 0 209 78" fill="none" xmlns="http://www.w3.org/2000/svg">
<path d="M0 75.2238L2.20133 74.7988V59.9969L0 59.572V57.079H8.45028V59.572L6.34836 59.9969V65.5069H8.20884L12.086 59.9402C12.9097 58.7882 13.6388 57.9902 14.2732 57.5464C14.9075 57.1026 15.7502 56.8807 16.8011 56.8807C17.284 56.8807 17.7337 56.9468 18.1503 57.079C18.5669 57.2112 18.9504 57.3859 19.3007 57.6031L18.6048 60.7051C18.3018 60.639 18.0935 60.5965 17.9799 60.5776C17.8758 60.5493 17.729 60.5351 17.5396 60.5351C17.1041 60.5351 16.7017 60.6579 16.3325 60.9034C15.9632 61.1489 15.5182 61.6069 14.9975 62.2774L11.7594 66.6967L17.4828 74.8696L19.6558 75.2238V77.7026H11.4611V75.2238L12.6399 75.0538L8.77693 69.2605H6.34836V74.7988L8.45028 75.2238V77.7026H0V75.2238Z" fill="#BC8822"/>
<path d="M39.2405 67.5466C39.2405 70.5684 38.3742 73.066 36.6415 75.0396C34.9089 77.0132 32.6413 78 29.8387 78C27.0456 78 24.7875 77.0132 23.0643 75.0396C21.3506 73.066 20.4937 70.5684 20.4937 67.5466V67.235C20.4937 64.2321 21.3506 61.7391 23.0643 59.7561C24.778 57.7731 27.0314 56.7815 29.8245 56.7815C32.6271 56.7815 34.8947 57.7731 36.6273 59.7561C38.3695 61.7391 39.2405 64.2321 39.2405 67.235V67.5466ZM35.1077 67.2066C35.1077 65.0725 34.6627 63.3397 33.7727 62.0083C32.8827 60.6768 31.5666 60.0111 29.8245 60.0111C28.0824 60.0111 26.7805 60.6721 25.9189 61.9941C25.0668 63.3161 24.6407 65.0536 24.6407 67.2066V67.5466C24.6407 69.7185 25.0715 71.4702 25.9331 72.8016C26.8042 74.1236 28.106 74.7847 29.8387 74.7847C31.5903 74.7847 32.9064 74.1236 33.7869 72.8016C34.6674 71.4702 35.1077 69.7185 35.1077 67.5466V67.2066Z" fill="#BC8822"/>
<path d="M50.7443 57.079C53.1113 57.079 54.9765 57.6881 56.3399 58.9062C57.7128 60.1149 58.3992 61.7014 58.3992 63.6655C58.3992 65.6391 57.7128 67.2255 56.3399 68.4248C54.9765 69.624 53.1113 70.2237 50.7443 70.2237H47.2505V74.7988L49.4661 75.2238V77.7026H40.9022V75.2238L43.1035 74.7988V59.9969L40.9022 59.572V57.079H50.7443ZM47.2505 67.0367H50.7443C51.8994 67.0367 52.7704 66.725 53.3575 66.1018C53.9539 65.4691 54.2522 64.6665 54.2522 63.6938C54.2522 62.7023 53.9539 61.8855 53.3575 61.2434C52.7704 60.5918 51.8994 60.266 50.7443 60.266H47.2505V67.0367Z" fill="#BC8822"/>
<path d="M56.1695 75.2238L57.6465 75.0113L63.9381 57.079H68.1845L74.4334 75.0113L75.9105 75.2238V77.7026H68.8662V75.2238L70.3006 74.9688L69.3917 72.1359H62.6883L61.7793 74.9688L63.2137 75.2238V77.7026H56.1695V75.2238ZM63.6682 69.0905H68.4117L66.0826 61.8241H65.9974L63.6682 69.0905Z" fill="#BC8822"/>
<path d="M77.2881 59.572V57.079H85.852V59.572L83.6364 59.9969V65.946H92.0725V59.9969L89.857 59.572V57.079H98.4209V59.572L96.2053 59.9969V74.7988L98.4209 75.2238V77.7026H89.857V75.2238L92.0725 74.7988V69.133H83.6364V74.7988L85.852 75.2238V77.7026H77.2881V75.2238L79.4894 74.7988V59.9969L77.2881 59.572Z" fill="#BC8822"/>
<path d="M117.011 57.079C119.379 57.079 121.244 57.6881 122.607 58.9062C123.98 60.1149 124.666 61.7014 124.666 63.6655C124.666 65.6391 123.98 67.2255 122.607 68.4248C121.244 69.624 119.379 70.2237 117.011 70.2237H113.518V74.7988L115.733 75.2238V77.7026H107.169V75.2238L109.371 74.7988V59.9969L107.169 59.572V57.079H117.011ZM113.518 67.0367H117.011C118.167 67.0367 119.038 66.725 119.625 66.1018C120.221 65.4691 120.519 64.6665 120.519 63.6938C120.519 62.7023 120.221 61.8855 119.625 61.2434C119.038 60.5918 118.167 60.266 117.011 60.266H113.518V67.0367Z" fill="#BC8822"/>
<path d="M144.89 59.572L142.874 59.8411L136.98 73.7931C136.374 75.1435 135.664 76.1822 134.849 76.9093C134.035 77.6364 132.871 78 131.356 78C131.119 78 130.849 77.9906 130.546 77.9717C130.253 77.9622 130.03 77.9481 129.879 77.9292L129.85 74.7705C129.954 74.7894 130.134 74.8035 130.39 74.813C130.646 74.8224 130.84 74.8271 130.972 74.8271C131.72 74.8271 132.279 74.6619 132.648 74.3314C133.027 74.0009 133.344 73.5004 133.6 72.8299L133.912 72.0509L127.976 59.8694L125.774 59.572V57.079H133.372V59.572L132.336 59.7703L135.332 66.2434L135.659 67.3341H135.744L138.599 59.8128L137.363 59.572V57.079H144.89V59.572Z" fill="#BC8822"/>
<path d="M157.999 75.2238L160.2 74.7988V69.7562C159.566 69.9073 158.86 70.0254 158.084 70.1104C157.308 70.1859 156.617 70.2237 156.011 70.2237C153.473 70.2237 151.508 69.676 150.117 68.5806C148.734 67.4852 148.043 65.7902 148.043 63.4955V59.9969L145.828 59.572V57.079H154.392V59.572L152.176 59.9969V63.4955C152.176 64.8364 152.479 65.7618 153.085 66.2718C153.691 66.7817 154.666 67.0367 156.011 67.0367C156.598 67.0367 157.284 66.9989 158.07 66.9233C158.865 66.8384 159.575 66.7203 160.2 66.5692V59.9969L157.999 59.572V57.079H166.563V59.572L164.347 59.9969V74.7988L166.563 75.2238V77.7026H157.999V75.2238Z" fill="#BC8822"/>
<path d="M168.068 75.2238L170.27 74.7988V59.9969L168.068 59.572V57.079H176.518V59.572L174.417 59.9969V65.5069H176.277L180.154 59.9402C180.978 58.7882 181.707 57.9902 182.341 57.5464C182.976 57.1026 183.818 56.8807 184.869 56.8807C185.352 56.8807 185.802 56.9468 186.219 57.079C186.635 57.2112 187.019 57.3859 187.369 57.6031L186.673 60.7051C186.37 60.639 186.162 60.5965 186.048 60.5776C185.944 60.5493 185.797 60.5351 185.608 60.5351C185.172 60.5351 184.77 60.6579 184.401 60.9034C184.031 61.1489 183.586 61.6069 183.066 62.2774L179.828 66.6967L185.551 74.8696L187.724 75.2238V77.7026H179.529V75.2238L180.708 75.0538L176.845 69.2605H174.417V74.7988L176.518 75.2238V77.7026H168.068V75.2238Z" fill="#BC8822"/>
<path d="M188.647 75.2238L190.124 75.0113L196.416 57.079H200.662L206.911 75.0113L208.388 75.2238V77.7026H201.344V75.2238L202.778 74.9688L201.869 72.1359H195.166L194.257 74.9688L195.691 75.2238V77.7026H188.647V75.2238ZM196.146 69.0905H200.889L198.56 61.8241H198.475L196.146 69.0905Z" fill="#BC8822"/>
<path d="M104.344 25.3253C95.5759 25.3253 88.4394 18.0938 88.4394 9.20919C88.4394 8.38727 88.5166 7.51009 88.678 6.52701L89.63 0.739034L85.0472 4.32832C79.9828 8.29518 77.0791 14.2673 77.0791 20.7207C77.0791 32.147 86.2514 41.4414 97.5276 41.4414C107.545 41.4414 116.02 34.1753 117.674 24.1603L118.631 18.3677L114.043 21.9593C111.23 24.1603 107.877 25.3253 104.344 25.3253ZM97.5276 36.8368C88.7598 36.8368 81.6232 29.6052 81.6232 20.7207C81.6232 17.6103 82.4934 14.6403 84.0929 12.0986C85.4857 22.1619 94.0355 29.9299 104.344 29.9299C106.77 29.9299 109.133 29.5039 111.36 28.6728C108.615 33.6112 103.415 36.8368 97.5276 36.8368Z" fill="#BC8822"/>
<path d="M104.344 0H99.7997V4.60459H104.344V0Z" fill="#BC8822"/>
<path d="M99.7997 4.60459H95.2556V9.20919H99.7997V4.60459Z" fill="#BC8822"/>
<path d="M104.344 9.20919H99.7997V13.8138H104.344V9.20919Z" fill="#BC8822"/>
<path d="M108.888 4.60459H104.344V9.20919H108.888V4.60459Z" fill="#BC8822"/>
</svg>
