<svg width="50" height="32" viewBox="0 0 50 32" fill="none" xmlns="http://www.w3.org/2000/svg">
<g clip-path="url(#clip0)">
<rect width="50" height="32" rx="3" fill="#036CB5"/>
<path d="M25.0578 5C26.1305 5 27.1511 5.24407 28.067 5.68066C28.2106 5.74502 28.3552 5.82204 28.4984 5.89912L27.8704 6.45155L26.9289 5.48821L25.3067 6.90094L24.3514 5.88612L21.3684 8.51927L23.2782 10.5872L22.5326 11.2292L24.4169 13.2972L23.6712 13.939L26.3665 16.8803L27.9617 15.4417L29.3492 16.9834C29.0742 17.1889 28.7733 17.3949 28.4466 17.5744C27.4521 18.1266 26.3006 18.4471 25.071 18.4471C21.2896 18.4471 18.2155 15.4294 18.2155 11.7178C18.2022 8.03127 21.2768 5 25.0578 5ZM23.8016 11.3065L25.437 9.86786L26.9027 11.4733L25.2669 12.9118L23.8016 11.3065ZM24.9663 14.0809L26.5885 12.6295L28.067 14.2348L26.4315 15.6735L24.9663 14.0809ZM22.6379 8.57082L24.2728 7.13221L25.7381 8.73767L24.1026 10.1762L22.6379 8.57082ZM25.6333 7.79993L26.8501 6.72109L27.9494 7.91564L26.7326 9.00722L25.6333 7.79993ZM27.8054 12.7449L29.0218 11.666L30.121 12.873L28.9041 13.9526L27.8054 12.7449ZM28.878 15.1726L30.0949 14.0935L31.1932 15.288L29.9768 16.3795L28.878 15.1726ZM29.3753 9.62379L30.1863 8.90445L30.9187 9.70108L30.1078 10.4201L29.3753 9.62379ZM28.3286 7.24764L29.1397 6.51569L29.8727 7.32473L29.0609 8.044L28.3286 7.24764ZM30.4087 12.0001L31.2198 11.2809L31.9655 12.0772L31.1415 12.7963L30.4087 12.0001ZM26.7586 10.2148L27.9755 9.13585L29.0742 10.3301L27.8579 11.4092L26.7586 10.2148Z" fill="white"/>
<path d="M14.3788 23.232H14.3408L13.6266 25.9447H13.0429L12.1667 22.0908H12.7723L13.3781 24.9665H13.4159L14.1189 22.0908H14.6004L15.3522 24.9665H15.3901L15.9418 22.0908H16.5746L15.6982 25.9447H15.114L14.3788 23.232Z" fill="white"/>
<path d="M17.343 24.3037H18.5813C18.5544 23.7331 18.2784 23.505 17.9865 23.505C17.6566 23.505 17.4022 23.7605 17.343 24.3037ZM19.0139 25.3259V25.7391C18.7706 25.8804 18.4462 25.9891 18.0566 25.9891C17.1482 25.9891 16.7751 25.4238 16.7751 24.5651C16.7751 23.7386 17.1914 23.1406 18.0027 23.1406C18.6786 23.1406 19.0953 23.5812 19.0953 24.467V24.6681H17.3321C17.3321 25.3202 17.597 25.6084 18.1543 25.6084C18.4462 25.6084 18.7166 25.5049 19.0139 25.3259Z" fill="white"/>
<path d="M20.3533 25.5536C20.5264 25.6296 20.7158 25.6409 20.8513 25.6409C21.2514 25.6409 21.5539 25.3905 21.5539 24.5102C21.5539 23.8198 21.3052 23.597 20.943 23.597C20.7265 23.597 20.5697 23.6569 20.3533 23.7763V25.5536H20.3533ZM20.359 23.3742C20.5208 23.2875 20.7966 23.1729 21.0888 23.1729C21.7595 23.1729 22.1219 23.6404 22.1219 24.5102C22.1219 25.5267 21.6351 26.0213 20.8513 26.0213C20.5644 26.0213 20.1209 25.9289 19.7962 25.7546V21.9609L20.359 21.8252V23.3742H20.359Z" fill="white"/>
<path d="M24.5561 25.1269H24.5832L25.7404 22.0884H26.4114V25.9425H25.8273V23.1484H25.7785L24.675 25.9425H24.3292L23.2255 23.2137H23.177V25.9425H22.6902V22.0884H23.3448L24.5561 25.1269Z" fill="white"/>
<path d="M28.7978 24.5649C28.7978 23.8312 28.5006 23.5215 28.1328 23.5215C27.776 23.5215 27.4675 23.8312 27.4675 24.5649C27.4675 25.3097 27.749 25.6084 28.1328 25.6084C28.5166 25.6084 28.7978 25.3097 28.7978 24.5649ZM26.8998 24.5649C26.8998 23.6134 27.4191 23.1406 28.1328 23.1406C28.847 23.1406 29.366 23.6134 29.366 24.5649C29.366 25.4943 28.8739 25.9891 28.1328 25.9891C27.3919 25.9891 26.8998 25.4943 26.8998 24.5649Z" fill="white"/>
<path d="M29.7938 23.5432C30.0371 23.3962 30.5511 23.1406 31.1729 23.1406C31.8219 23.1406 32.0648 23.3962 32.0648 23.9559V25.9239H31.5028V24.0811C31.5028 23.6517 31.2922 23.5757 31.016 23.5757C30.7999 23.5757 30.5238 23.6736 30.3563 23.7715V25.9239H29.7938V23.5432H29.7938Z" fill="white"/>
<path d="M33.2553 24.3037H34.4937C34.4671 23.7331 34.191 23.505 33.8989 23.505C33.5689 23.505 33.3151 23.7605 33.2553 24.3037ZM34.9263 25.3259V25.7391C34.6831 25.8804 34.3585 25.9891 33.9691 25.9891C33.061 25.9891 32.6876 25.4238 32.6876 24.5651C32.6876 23.7386 33.1038 23.1406 33.9151 23.1406C34.5914 23.1406 35.008 23.5812 35.008 24.467V24.6681H33.2447C33.2447 25.3202 33.5097 25.6084 34.0668 25.6084C34.3585 25.6084 34.6294 25.5049 34.9263 25.3259Z" fill="white"/>
<path d="M37.2545 23.1406H37.8334L36.8544 25.8581C36.5836 26.6083 36.254 26.9997 35.6322 26.9997V26.5542C36.0002 26.5542 36.227 26.2606 36.3571 25.8581L35.3186 23.1406H35.9136L36.6058 25.1409H36.6383L37.2545 23.1406Z" fill="white"/>
</g>
<defs>
<clipPath id="clip0">
<rect width="50" height="32" fill="white"/>
</clipPath>
</defs>
</svg>
