<svg width="26" height="30" viewBox="0 0 26 30" fill="none" xmlns="http://www.w3.org/2000/svg">
<path d="M13.8961 18.8295H12.1809C11.5572 18.8295 11.052 18.3243 11.052 17.7006C11.052 17.0769 11.5572 16.5717 12.1809 16.5717H15.1996C15.6112 16.5717 15.948 16.2349 15.948 15.8233C15.948 15.4116 15.6112 15.0748 15.1996 15.0748H13.7838V14.0333C13.7838 13.6216 13.447 13.2848 13.0353 13.2848C12.6237 13.2848 12.2869 13.6216 12.2869 14.0333V15.0748H12.1809C10.7339 15.0748 9.5551 16.2536 9.5551 17.7006C9.5551 19.1476 10.7339 20.3264 12.1809 20.3264H13.8961C14.5198 20.3264 15.0249 20.8316 15.0249 21.4553C15.0249 22.079 14.5198 22.5842 13.8961 22.5842H10.8212C10.4096 22.5842 10.0728 22.921 10.0728 23.3326C10.0728 23.7443 10.4096 24.0811 10.8212 24.0811H12.2931V25.1476C12.2931 25.5593 12.6299 25.8961 13.0416 25.8961C13.4532 25.8961 13.79 25.5593 13.79 25.1476V24.0811H13.9148C13.921 24.0811 13.9272 24.0811 13.9335 24.0811C15.368 24.0624 16.5218 22.8898 16.5218 21.4553C16.5218 20.0083 15.343 18.8295 13.8961 18.8295Z" fill="#BC8822"/>
<path d="M24.2869 17.1331C23.501 15.3243 22.4158 13.5717 21.0437 11.9314C19.3846 9.93555 17.7318 8.60083 16.8898 7.98337L20.0707 2.08316C20.2266 1.79002 20.1767 1.42827 19.9335 1.19751C19.1102 0.392932 18.237 0 17.264 0C16.3721 0 15.5551 0.336798 14.8441 0.636175C14.2827 0.866944 13.7526 1.09148 13.3222 1.09148C13.1913 1.09148 13.079 1.07277 12.9667 1.02911C11.4823 0.486486 10.341 0.149688 9.23701 0.149688C7.83992 0.149688 6.64865 0.711019 5.48233 1.90852C5.23908 2.158 5.20166 2.55094 5.39501 2.84407L8.82536 8.02703C7.97713 8.65697 6.35551 9.97921 4.72765 11.9314C3.36175 13.5717 2.27027 15.3243 1.48441 17.1331C0.49896 19.4096 0 21.7859 0 24.1933C0 27.3929 2.60707 30 5.80665 30H19.9647C23.1642 30 25.7713 27.3929 25.7713 24.1933C25.7713 21.7859 25.2723 19.4096 24.2869 17.1331ZM6.99168 2.53222C7.71518 1.90852 8.40748 1.6341 9.23701 1.6341C10.1227 1.6341 11.1206 1.93347 12.4491 2.4262C12.7235 2.52599 13.0166 2.57588 13.316 2.57588C14.0457 2.57588 14.7443 2.28898 15.4116 2.00832C16.0541 1.74012 16.6653 1.48441 17.2578 1.48441C17.5447 1.48441 17.9501 1.5343 18.4615 1.89605L15.4678 7.45946H10.2536L6.99168 2.53222ZM19.9647 28.5031H5.80665C3.43035 28.5031 1.49688 26.5696 1.49688 24.1933C1.49688 20.1954 2.96258 16.4033 5.84407 12.9231C7.66528 10.7214 9.51767 9.35551 10.079 8.95634H15.6798C16.2474 9.34927 18.0936 10.7214 19.9148 12.9231C22.8025 16.4033 24.2619 20.1892 24.2619 24.1933C24.2744 26.5696 22.341 28.5031 19.9647 28.5031Z" fill="#BC8822"/>
</svg>
