<svg width="30" height="30" viewBox="0 0 30 30" fill="none" xmlns="http://www.w3.org/2000/svg">
<path d="M12.5208 10.6438L10.264 17.091L8.00664 10.6438H6.38313L9.45418 19.2061L9.50866 19.3564H11.0187L14.0379 10.9473L14.1458 10.6438H12.5208Z" fill="#BC8822"/>
<path d="M16.3703 10.6438H14.7751V19.3558H16.3703V10.6438Z" fill="#BC8822"/>
<path d="M23.3036 12.1211C23.1281 11.7903 22.8801 11.5095 22.567 11.2866C22.2614 11.0703 21.8979 10.9064 21.487 10.8C21.0867 10.6967 20.648 10.6442 20.1842 10.6442H17.9612V19.3563H19.5565V16.0947H19.8994C20.4061 16.0947 20.8861 16.0316 21.3262 15.9071C21.7709 15.7801 22.1637 15.5955 22.4929 15.3576C22.8283 15.1161 23.0954 14.8176 23.2861 14.4697C23.4767 14.1188 23.5739 13.7215 23.5739 13.2888C23.5739 12.8491 23.4821 12.4564 23.3036 12.1211ZM21.8389 13.8757C21.7456 14.0491 21.61 14.2009 21.4355 14.3254C21.2556 14.454 21.0382 14.5523 20.7887 14.6194C20.5315 14.689 20.2446 14.7237 19.9361 14.7237H19.5564V12.0146H20.1473C20.41 12.0146 20.6626 12.0403 20.899 12.0913C21.1219 12.1377 21.317 12.2148 21.4809 12.3197C21.6361 12.421 21.7602 12.5486 21.8474 12.7014C21.9346 12.8527 21.979 13.0458 21.979 13.2762C21.9791 13.5015 21.9317 13.7033 21.8389 13.8757Z" fill="#BC8822"/>
<path d="M5.37351 26.0122H10.4382L10.4756 26.0491L14.0198 29.5933C14.2807 29.8557 14.6284 30 14.9996 30C15.364 30 15.7215 29.8518 15.9795 29.5938L19.5611 26.0127H24.6257C25.3899 26.0127 26.0123 25.3908 26.0123 24.6261V19.5619L26.0487 19.525L29.5929 15.9808C29.8549 15.7189 29.9996 15.3708 29.9996 15C29.9996 14.6297 29.8559 14.2816 29.5939 14.0197L26.0123 10.4386V5.37438C26.0123 4.6097 25.3899 3.98782 24.6257 3.98782H19.5611L19.5237 3.95089L15.9795 0.40671C15.7215 0.148208 15.365 0 14.9996 0C14.6294 0 14.2817 0.144269 14.0198 0.406217L10.4382 3.98733H5.37351C4.60933 3.98733 3.98696 4.60921 3.98696 5.37388V10.4386L3.94954 10.4755L0.405356 14.0192C-0.135283 14.5598 -0.135283 15.4397 0.40634 15.9803L3.98696 19.5615V24.6256C3.98696 25.3903 4.60933 26.0122 5.37351 26.0122ZM1.20794 15L1.29657 14.9109L5.24746 10.9605V5.24783H10.9601L14.9996 1.20831L19.0392 5.24783H24.7518V10.9605L28.7913 15L28.7027 15.0891L24.7518 19.0395V24.7522H19.0392L14.9996 28.7917L10.9601 24.7522H5.24746V19.0395L1.20794 15Z" fill="#BC8822"/>
<path d="M14.9994 5.16816C15.4171 5.16816 15.7557 4.82955 15.7557 4.41186C15.7557 3.99416 15.4171 3.65556 14.9994 3.65556C14.5817 3.65556 14.2431 3.99416 14.2431 4.41186C14.2431 4.82955 14.5817 5.16816 14.9994 5.16816Z" fill="#BC8822"/>
<path d="M14.9994 26.3446C15.4171 26.3446 15.7557 26.006 15.7557 25.5883C15.7557 25.1706 15.4171 24.832 14.9994 24.832C14.5817 24.832 14.2431 25.1706 14.2431 25.5883C14.2431 26.006 14.5817 26.3446 14.9994 26.3446Z" fill="#BC8822"/>
<path d="M7.512 8.26901C7.9297 8.26901 8.2683 7.9304 8.2683 7.51271C8.2683 7.09502 7.9297 6.75641 7.512 6.75641C7.09431 6.75641 6.7557 7.09502 6.7557 7.51271C6.7557 7.9304 7.09431 8.26901 7.512 8.26901Z" fill="#BC8822"/>
<path d="M22.4863 23.2433C22.904 23.2433 23.2426 22.9046 23.2426 22.487C23.2426 22.0693 22.904 21.7307 22.4863 21.7307C22.0686 21.7307 21.73 22.0693 21.73 22.487C21.73 22.9046 22.0686 23.2433 22.4863 23.2433Z" fill="#BC8822"/>
<path d="M22.4863 8.26901C22.904 8.26901 23.2426 7.9304 23.2426 7.51271C23.2426 7.09502 22.904 6.75641 22.4863 6.75641C22.0686 6.75641 21.73 7.09502 21.73 7.51271C21.73 7.9304 22.0686 8.26901 22.4863 8.26901Z" fill="#BC8822"/>
<path d="M7.512 23.2433C7.92969 23.2433 8.2683 22.9046 8.2683 22.487C8.2683 22.0693 7.92969 21.7307 7.512 21.7307C7.09431 21.7307 6.7557 22.0693 6.7557 22.487C6.7557 22.9046 7.09431 23.2433 7.512 23.2433Z" fill="#BC8822"/>
<path d="M25.5876 15.7564C26.0053 15.7564 26.3439 15.4178 26.3439 15.0001C26.3439 14.5824 26.0053 14.2438 25.5876 14.2438C25.1699 14.2438 24.8313 14.5824 24.8313 15.0001C24.8313 15.4178 25.1699 15.7564 25.5876 15.7564Z" fill="#BC8822"/>
<path d="M4.41121 15.7564C4.8289 15.7564 5.16751 15.4178 5.16751 15.0001C5.16751 14.5824 4.8289 14.2438 4.41121 14.2438C3.99352 14.2438 3.65491 14.5824 3.65491 15.0001C3.65491 15.4178 3.99352 15.7564 4.41121 15.7564Z" fill="#BC8822"/>
</svg>
