<svg width="29" height="30" viewBox="0 0 29 30" fill="none" xmlns="http://www.w3.org/2000/svg">
<path d="M28.4552 15.4318L26.9655 12.2606C26.6098 11.5028 25.8387 11.0132 25.0014 11.0132H24.6264V7.36958H25.5321C25.8858 7.36958 26.1729 7.08269 26.1729 6.72872C26.1729 6.375 25.8858 6.08787 25.5321 6.08787C24.5347 6.08787 23.2042 6.08787 22.1739 6.08787V4.34004H22.4565C23.6528 4.34004 24.6264 3.36649 24.6264 2.16989C24.6264 0.973548 23.6528 0 22.4565 0C20.284 0 9.719 0 4.12629 0C3.77232 0 3.48543 0.286883 3.48543 0.640855C3.48543 0.994577 3.77232 1.28171 4.12629 1.28171H4.7336V3.05808H4.4367C3.24812 3.05808 2.28108 4.02512 2.28108 5.21395C2.28108 6.40254 3.24812 7.36958 4.4367 7.36958H6.31921C5.53241 8.45052 5.5234 9.91973 6.31921 11.0132H3.60935C2.77223 11.0132 2.0012 11.5028 1.64523 12.2606L0.155494 15.4318C-0.348929 16.5055 0.435617 17.7374 1.61995 17.7374H2.67385V27.8859C2.67385 29.0515 3.62212 30 4.78792 30H23.8228C24.9886 30 25.9369 29.0515 25.9369 27.8859V17.7374H26.991C28.1774 17.7374 28.9586 16.5035 28.4552 15.4318ZM6.01531 1.28171H22.4562C22.9461 1.28171 23.3447 1.68024 23.3447 2.16989C23.3447 2.65955 22.9461 3.05808 22.4562 3.05808C21.9721 3.05808 6.84316 3.05808 6.01531 3.05808V1.28171ZM3.56254 5.2137C3.56254 4.73181 3.95456 4.33979 4.4367 4.33979H20.8919V6.08787C20.4097 6.08787 4.88705 6.08787 4.4367 6.08787C3.95481 6.08787 3.56254 5.69584 3.56254 5.2137ZM7.00763 9.19151C7.00763 8.18692 7.82472 7.36958 8.82931 7.36958H23.3447V11.0132H8.82931C7.82497 11.0132 7.00763 10.1958 7.00763 9.19151ZM11.9908 28.7183V23.3326C11.9908 23.1666 12.1257 23.032 12.2917 23.032H15.6354C15.8014 23.032 15.9363 23.1666 15.9363 23.3326V28.7183H11.9908ZM24.6552 27.8859C24.6552 28.345 24.2819 28.7183 23.8228 28.7183H17.218V23.3326C17.218 22.4602 16.508 21.7502 15.6354 21.7502H12.2917C11.419 21.7502 10.7091 22.4602 10.7091 23.3326V28.7183H4.78792C4.32881 28.7183 3.95556 28.345 3.95556 27.8859V17.7374H24.6552V27.8859ZM26.991 16.4557C26.4288 16.4557 2.17343 16.4557 1.61995 16.4557C1.37362 16.4557 1.2109 16.1996 1.31554 15.9766L2.80528 12.8056C2.95097 12.4952 3.26664 12.2949 3.60935 12.2949H25.0014C25.3441 12.2949 25.6597 12.4952 25.8054 12.8056L27.2952 15.9766C27.3998 16.1996 27.2371 16.4557 26.991 16.4557Z" fill="#BC8822"/>
</svg>
