<svg width="30" height="30" viewBox="0 0 30 30" fill="none" xmlns="http://www.w3.org/2000/svg">
<path d="M28.3995 6.68858H24.2381C24.9174 5.95206 25.3334 4.96897 25.3334 3.89032C25.3334 3.89032 25.3326 3.72567 25.331 3.67868C25.2861 2.34754 24.5601 1.16043 23.3893 0.50289C22.1947 -0.167776 20.7716 -0.1676 19.5826 0.503534L17.69 1.57164C16.5047 2.24061 15.5771 3.24889 15 4.43448C14.4229 3.24889 13.4953 2.24061 12.3101 1.5717L10.4175 0.503475C9.22847 -0.1676 7.8054 -0.167835 6.61084 0.502831C5.43996 1.16031 4.71405 2.34748 4.6691 3.67862C4.66753 3.72561 4.6667 3.89026 4.6667 3.89026C4.6667 4.96891 5.08266 5.952 5.76205 6.68858H1.60054C0.718002 6.68858 0 7.40665 0 8.28919V12.0881C0 12.9706 0.718002 13.6886 1.60054 13.6886H2.33331V28.0881C2.33331 28.9707 3.05133 29.6887 3.93387 29.6887H26.0661C26.9487 29.6887 27.6667 28.9707 27.6667 28.0881V13.6886H28.3994C29.282 13.6886 30 12.9705 30 12.088V8.28913C30 7.40665 29.282 6.68858 28.3995 6.68858ZM18.3453 2.7328L20.2379 1.66469C21.0177 1.22453 21.9518 1.22488 22.7365 1.66551C23.4976 2.09283 23.9693 2.86223 23.9984 3.72374C23.9995 3.75573 24 3.89032 24 3.89032C24 5.43333 22.7447 6.68864 21.2016 6.68864H15.7048C15.9046 5.03934 16.8783 3.56073 18.3453 2.7328ZM6.00159 3.72368C6.0307 2.86223 6.50244 2.09283 7.26352 1.66545C7.65622 1.44496 8.08606 1.33481 8.51544 1.33481C8.94417 1.33481 9.37244 1.44473 9.76202 1.66469L11.6546 2.7328C13.1217 3.56073 14.0953 5.03934 14.2951 6.68853H8.79822C7.25526 6.68853 5.99994 5.43321 5.99994 3.89026C6 3.89032 6.00053 3.75567 6.00159 3.72368ZM12.0001 15.7167H9.25542C8.88722 15.7167 8.58875 16.0152 8.58875 16.3833C8.58875 16.7515 8.88722 17.05 9.25542 17.05H12.0001V28.3553H3.93387C3.7865 28.3553 3.66667 28.2355 3.66667 28.0882V13.6886H12.0001V15.7167ZM12.0001 12.3553H1.60054C1.45319 12.3553 1.33336 12.2354 1.33336 12.0881V8.28925C1.33336 8.14183 1.45323 8.02201 1.60054 8.02201H12.0001V12.3553ZM16.6665 28.3552H13.3334V8.02189H16.6665V28.3552ZM26.3334 28.0881C26.3334 28.2355 26.2135 28.3553 26.0662 28.3553H17.9999V17.05H20.5403C20.9084 17.05 21.2069 16.7514 21.2069 16.3833C21.2069 16.0151 20.9084 15.7166 20.5403 15.7166H17.9999V13.6886H26.3334L26.3334 28.0881ZM28.6667 12.0881C28.6667 12.2354 28.5468 12.3553 28.3995 12.3553H17.9999V8.02195H28.3996C28.5469 8.02195 28.6667 8.14183 28.6667 8.28919L28.6667 12.0881Z" fill="#BC8822"/>
<path d="M23.707 17.05H23.7736C24.1418 17.05 24.4403 16.7514 24.4403 16.3833C24.4403 16.0151 24.1418 15.7166 23.7736 15.7166H23.707C23.3387 15.7166 23.0403 16.0151 23.0403 16.3833C23.0403 16.7514 23.3387 17.05 23.707 17.05Z" fill="#BC8822"/>
<path d="M6.02216 17.05H6.08884C6.45703 17.05 6.75551 16.7514 6.75551 16.3833C6.75551 16.0151 6.45697 15.7166 6.08884 15.7166H6.02216C5.65395 15.7166 5.35547 16.0151 5.35547 16.3833C5.35547 16.7514 5.65395 17.05 6.02216 17.05Z" fill="#BC8822"/>
</svg>
