<svg width="30" height="30" viewBox="0 0 30 30" fill="none" xmlns="http://www.w3.org/2000/svg">
<path d="M29.518 0.482017C28.919 -0.117195 27.8993 -0.159081 26.6464 0.363914C25.7009 0.758736 24.6776 1.44675 23.7209 2.32543C23.6694 2.27393 23.6188 2.22175 23.5666 2.17117C23.4512 2.05878 23.2983 1.99584 23.1368 1.99767L14.4228 2.18147C14.2712 2.18467 14.1266 2.24647 14.0192 2.35358L11.0044 5.36842C10.7748 5.59821 10.7748 5.97083 11.0044 6.2004C11.2342 6.4302 11.6066 6.4302 11.8364 6.2004L14.6841 3.35288L22.8685 3.18008C22.1512 3.96468 21.5632 4.79278 21.1592 5.58586C20.3211 5.58402 19.4822 5.90194 18.8441 6.54006C18.2277 7.15644 17.888 7.9763 17.888 8.84811C17.888 9.71992 18.2275 10.5395 18.8441 11.1559C19.4605 11.7725 20.2803 12.112 21.1521 12.112C22.0239 12.112 22.8436 11.7725 23.4602 11.1559C24.0765 10.5395 24.416 9.71992 24.416 8.84811C24.416 8.70277 24.4057 8.55903 24.3871 8.41758C24.3869 8.41552 24.3867 8.41346 24.3864 8.4114C24.2926 7.70507 23.9724 7.0523 23.4602 6.54006C23.1384 6.21848 22.7657 5.97839 22.3682 5.81931C22.7106 5.21667 23.1725 4.59251 23.7218 3.99032L26.8208 7.08938L26.6473 15.3161L13.3834 28.5798L1.42021 16.6166L8.48786 9.54894C8.71765 9.31915 8.71765 8.94676 8.48786 8.71696C8.25806 8.48716 7.8859 8.48716 7.65587 8.71696L0.172348 16.2007C0.062027 16.311 0 16.4605 0 16.6166C0 16.7727 0.062027 16.9221 0.172348 17.0325L12.9675 29.8277C13.0824 29.9426 13.2328 30 13.3834 30C13.534 30 13.6846 29.9426 13.7995 29.8277L27.6464 15.9808C27.7535 15.8734 27.8153 15.7288 27.8185 15.577L28.0026 6.86302C28.0058 6.7028 27.9435 6.54807 27.8302 6.43478L27.6746 6.27914C28.5532 5.32241 29.2413 4.29908 29.6361 3.35357C30.1591 2.1009 30.1172 1.081 29.518 0.482017ZM21.1519 10.9355C20.5943 10.9355 20.0702 10.7183 19.6758 10.3239C19.2817 9.9298 19.0645 9.40544 19.0645 8.84788C19.0645 8.29032 19.2815 7.76618 19.6758 7.37182C19.9622 7.08549 20.3117 6.90055 20.6797 6.81564C20.4456 7.73208 20.568 8.47709 21.0455 8.95454C21.367 9.27612 21.8076 9.43725 22.3402 9.43725C22.6009 9.43725 22.8841 9.39742 23.1855 9.32029C23.0988 9.69726 22.9083 10.0436 22.6282 10.3239C22.2338 10.7183 21.7097 10.9355 21.1519 10.9355ZM23.1088 8.11889C22.4316 8.33953 22.0271 8.27247 21.8774 8.12255C21.6893 7.93441 21.6957 7.46978 21.8813 6.89277C22.1539 6.99394 22.4094 7.15324 22.6282 7.37182C22.8436 7.5872 23.0056 7.84171 23.1088 8.11889ZM28.5503 2.90038C28.2115 3.71154 27.6128 4.60075 26.8417 5.44624L24.5538 3.1581C25.3993 2.387 26.2882 1.78825 27.0996 1.4495C27.8378 1.14143 28.4605 1.0881 28.686 1.31377C28.9119 1.53945 28.8586 2.16224 28.5503 2.90038Z" fill="#BC8822"/>
<path d="M9.5208 16.1419C8.91312 16.7496 8.57849 17.5573 8.57849 18.4167C8.57849 19.0242 8.74649 19.6053 9.05914 20.1089L8.47779 20.6902C8.24799 20.92 8.24799 21.2924 8.47779 21.5222C8.59268 21.6371 8.74329 21.6946 8.89366 21.6946C9.04427 21.6946 9.19487 21.6371 9.30977 21.5222L9.85245 20.9795C10.4095 21.4014 11.0934 21.6337 11.7973 21.6337C11.8478 21.6337 11.8989 21.6325 11.9497 21.63C12.8519 21.587 13.662 21.1423 14.1719 20.4103C14.6631 19.7054 14.7963 18.8315 14.5374 18.0128C14.4159 17.6285 14.2136 17.2552 13.9343 16.8977L16.3264 14.5054C16.4394 14.7615 16.4994 15.0405 16.4994 15.3289C16.4994 15.8739 16.2872 16.3863 15.9018 16.7718C15.672 17.0013 15.672 17.374 15.9018 17.6038C16.1314 17.8333 16.5038 17.8336 16.7338 17.6038C17.3412 16.9961 17.6759 16.1881 17.6759 15.3289C17.6759 14.7214 17.5081 14.1401 17.1954 13.6365L17.7768 13.0552C18.0064 12.8256 18.0064 12.453 17.7768 12.2232C17.547 11.9936 17.1746 11.9936 16.9448 12.2232L16.4019 12.7661C15.8043 12.3138 15.0611 12.0788 14.3047 12.1154C13.4024 12.1584 12.5924 12.6031 12.0824 13.3351C11.5913 14.0403 11.4583 14.9142 11.7169 15.7326C11.8385 16.1169 12.041 16.4902 12.3203 16.8478L9.92798 19.24C9.81491 18.9839 9.75495 18.7049 9.75495 18.4165C9.75495 17.8715 9.96735 17.3591 10.3528 16.9739C10.5824 16.7441 10.5824 16.3717 10.3528 16.1419C10.123 15.9121 9.7506 15.9121 9.5208 16.1419ZM13.4157 18.3675C13.5635 18.8354 13.4876 19.3348 13.2067 19.7379C12.9069 20.1681 12.4285 20.4293 11.8936 20.4549C11.4684 20.4755 11.05 20.3611 10.6966 20.1354L13.0932 17.7388C13.2404 17.9469 13.3491 18.1572 13.4157 18.3675ZM12.8387 15.3779C12.6908 14.9103 12.767 14.4109 13.0479 14.0076C13.3475 13.5775 13.8261 13.3161 14.3607 13.2907C14.7855 13.2703 15.2042 13.3845 15.5578 13.6102L13.1612 16.0068C13.014 15.7986 12.9053 15.5885 12.8387 15.3779Z" fill="#BC8822"/>
<path d="M9.20334 7.6831C9.2981 7.91221 9.53591 8.06144 9.78333 8.04542C10.0188 8.03031 10.2274 7.87055 10.3033 7.64716C10.3816 7.4176 10.3068 7.15781 10.1196 7.00378C9.92455 6.84333 9.64005 6.82685 9.42787 6.96372C9.19258 7.1157 9.09622 7.424 9.20334 7.6831Z" fill="#BC8822"/>
</svg>
