<svg width="30" height="29" viewBox="0 0 30 29" fill="none" xmlns="http://www.w3.org/2000/svg">
<path d="M28.2691 2.30932H1.73076C0.775327 2.31033 0.0010143 3.08464 3e-07 4.04008V5.19394C-6.73e-05 5.34694 0.060712 5.49372 0.168952 5.60196C0.277125 5.71013 0.423901 5.77091 0.576966 5.77091H1.15386V23.0785H0.576966C0.423969 23.0784 0.277192 23.1392 0.168952 23.2475C0.0607796 23.3556 0 23.5024 0 23.6555V24.8093C0.0010141 25.7648 0.775327 26.5391 1.73076 26.5401H28.2691C29.2245 26.5391 29.9988 25.7648 29.9998 24.8093V23.6554C29.9999 23.5024 29.9391 23.3556 29.8309 23.2474C29.7227 23.1392 29.5759 23.0785 29.4229 23.0785H28.846V5.77084H29.4229C29.5759 5.77091 29.7227 5.71013 29.831 5.60189C29.9391 5.49372 29.9999 5.34694 29.9999 5.19387V4.04001C29.9988 3.08464 29.2246 2.3104 28.2691 2.30932ZM28.846 4.61704H28.2691C28.1161 4.61698 27.9694 4.67775 27.8611 4.786C27.753 4.89417 27.6922 5.04094 27.6922 5.19401V23.6555C27.6921 23.8085 27.7529 23.9553 27.8611 24.0635C27.9693 24.1717 28.1161 24.2324 28.2691 24.2324H28.846V24.8093C28.8457 25.1278 28.5876 25.386 28.2691 25.3862H1.73076C1.41226 25.3859 1.15413 25.1278 1.15386 24.8093V24.2324H1.73076C1.88376 24.2325 2.03053 24.1717 2.13877 24.0635C2.24695 23.9553 2.30773 23.8085 2.30773 23.6555V5.19394C2.30779 5.04095 2.24701 4.89417 2.13877 4.78593C2.0306 4.67775 1.88383 4.61698 1.73076 4.61698H1.15386V4.04008C1.1542 3.72158 1.41226 3.46345 1.73076 3.46318H28.2691C28.5876 3.46352 28.8457 3.72158 28.846 4.04008L28.846 4.61704Z" fill="#BC8822"/>
<path d="M25.9614 4.61704H4.03849C3.88549 4.61698 3.73871 4.67775 3.63047 4.786C3.5223 4.89417 3.46152 5.04094 3.46152 5.19401V23.6555C3.46145 23.8085 3.52223 23.9553 3.63047 24.0635C3.73865 24.1717 3.88542 24.2324 4.03849 24.2324H25.9615C26.1145 24.2325 26.2613 24.1717 26.3695 24.0635C26.4777 23.9553 26.5385 23.8085 26.5385 23.6555V5.19394C26.5385 5.04095 26.4777 4.89417 26.3695 4.78593C26.2613 4.67775 26.1145 4.61698 25.9614 4.61704ZM25.3845 23.0785H4.61539V5.77091H25.3845V23.0785Z" fill="#BC8822"/>
<path d="M29.6421 0.0478341C29.5029 -0.0158526 29.3428 -0.0158526 29.2036 0.0478341C29.1337 0.0771082 29.0694 0.118079 29.0134 0.168988C28.9611 0.224089 28.9199 0.288789 28.892 0.359439C28.8161 0.53691 28.835 0.740613 28.942 0.901181C29.0491 1.06175 29.23 1.15735 29.423 1.15552C29.4987 1.15735 29.5737 1.14153 29.6422 1.10935C29.7121 1.08007 29.7765 1.0391 29.8326 0.988192C29.9411 0.879613 30.0014 0.732093 30 0.578623C29.9977 0.425897 29.938 0.279662 29.8326 0.168987C29.7774 0.116861 29.7127 0.0757558 29.6421 0.0478341Z" fill="#BC8822"/>
<path d="M29.8326 27.8612C29.6013 27.6477 29.2447 27.6477 29.0134 27.8612C28.9623 27.9172 28.9212 27.9816 28.8919 28.0516C28.7855 28.3059 28.8747 28.5999 29.1045 28.7522C29.3343 28.9044 29.6399 28.8719 29.8325 28.6748C29.9417 28.569 30.0023 28.4228 29.9998 28.2708C29.9989 28.1954 29.9832 28.121 29.9537 28.0516C29.9257 27.981 29.8846 27.9164 29.8326 27.8612Z" fill="#BC8822"/>
<path d="M0.357511 1.10928C0.426065 1.14153 0.501177 1.15735 0.576966 1.15545C0.769986 1.15748 0.950972 1.06182 1.058 0.90118C1.16509 0.740543 1.18375 0.536774 1.10769 0.35937C1.07977 0.288787 1.03866 0.224154 0.986601 0.168919C0.930487 0.11801 0.866057 0.0770401 0.79615 0.047765C0.656878 -0.0159217 0.49685 -0.0159217 0.357578 0.047765C0.21283 0.100499 0.098775 0.214553 0.0460407 0.359302C-0.0457031 0.574024 0.00229849 0.822957 0.167397 0.988122C0.223376 1.0391 0.287672 1.08007 0.357511 1.10928Z" fill="#BC8822"/>
<path d="M0.986534 27.8612C0.755247 27.6477 0.398683 27.6477 0.167329 27.8612C0.116285 27.9172 0.07518 27.9816 0.0459056 28.0516C-0.0605768 28.3059 0.0286655 28.5999 0.258465 28.7522C0.488264 28.9044 0.793851 28.8719 0.986466 28.6748C1.09565 28.569 1.15623 28.4228 1.1538 28.2708C1.15285 28.1954 1.13716 28.121 1.10762 28.0516C1.07977 27.981 1.03866 27.9164 0.986534 27.8612Z" fill="#BC8822"/>
<path d="M6.34615 8.65546C6.49921 8.65567 6.64599 8.59482 6.75403 8.48644L7.33092 7.90955C7.55275 7.68367 7.55105 7.32129 7.32727 7.09744C7.10349 6.87359 6.74104 6.87197 6.51517 7.09379L5.93827 7.67069C5.77331 7.83565 5.72402 8.08377 5.81326 8.29931C5.9025 8.51484 6.11283 8.6554 6.34615 8.65546Z" fill="#BC8822"/>
<path d="M6.46478 10.2677C6.46478 10.4207 6.52556 10.5674 6.6338 10.6755C6.74197 10.7838 6.88868 10.8446 7.04168 10.8446C7.19467 10.8446 7.34138 10.7838 7.44956 10.6755L9.75721 8.36788C9.98005 8.1422 9.9789 7.77895 9.75465 7.55462C9.53039 7.33037 9.16707 7.32922 8.94139 7.55205L6.63373 9.85971C6.52556 9.96789 6.46478 10.1147 6.46478 10.2677Z" fill="#BC8822"/>
</svg>
