<svg width="32" height="32" viewBox="0 0 32 32" fill="none" xmlns="http://www.w3.org/2000/svg">
<path d="M21.2132 14.4756L21.2132 14.4756C21.4263 14.2626 21.7715 14.2626 21.9844 14.4756C22.1973 14.6886 22.1973 15.0339 21.9844 15.2469L21.9844 15.2469L9.15301 28.0823C9.10142 28.1339 9.04007 28.1746 8.97267 28.202L8.9726 28.202L1.94504 31.0575C1.8443 31.1026 1.7381 31.125 1.63258 31.125C1.43612 31.125 1.24483 31.0474 1.09872 30.9012C0.873056 30.6755 0.812599 30.3444 0.942554 30.0547L3.79705 23.0249C3.82445 22.9574 3.86516 22.896 3.91665 22.8445L3.93234 22.8288L21.2132 14.4756ZM21.2132 14.4756L8.78326 26.9094M21.2132 14.4756L8.78326 26.9094M8.78326 26.9094L5.08952 23.2146L6.42465 21.8879L6.42494 21.8876C6.63784 21.6746 6.63782 21.3293 6.42496 21.1163C6.21209 20.9033 5.86691 20.9033 5.65394 21.1162L5.65403 21.1161L5.74219 21.2047L5.65378 21.1163L8.78326 26.9094ZM3.935 22.8262C3.93424 22.8269 3.9334 22.8277 3.93251 22.8286L4.02091 22.917L3.935 22.8262ZM3.935 22.8262C3.93621 22.8251 3.93722 22.8242 3.93789 22.8236L3.9334 22.8278L3.935 22.8262ZM27.38 1.51693L27.4683 1.60532L27.3799 1.51694L25.6702 3.22731L25.3576 2.91466C25.1564 2.71333 24.8883 2.60224 24.6037 2.60224C24.3192 2.60224 24.051 2.71333 23.8498 2.91457L23.8497 2.91459L8.27308 18.4961C8.06019 18.7091 8.06021 19.0544 8.27307 19.2674L8.27308 19.2674C8.37955 19.3739 8.51934 19.4272 8.65869 19.4272C8.79809 19.4272 8.93784 19.3738 9.04427 19.2674L9.0443 19.2674L20.7742 7.53379L24.4683 11.229L23.5251 12.1725C23.3122 12.3854 23.3122 12.7307 23.5251 12.9437L23.5251 12.9438C23.738 13.1567 24.0832 13.1568 24.2963 12.9438L24.2963 12.9438L26.31 10.9294L27.3064 11.926C27.3173 11.937 27.3192 11.9495 27.3192 11.957C27.3192 11.9645 27.3174 11.9771 27.3063 11.9881L19.6712 19.6254C19.4583 19.8384 19.4583 20.1837 19.6712 20.3967L19.6712 20.3967C19.7777 20.5032 19.9174 20.5565 20.0568 20.5565C20.1961 20.5565 20.3359 20.5031 20.4424 20.3968L20.4424 20.3967L28.0774 12.7594C28.2915 12.5452 28.4096 12.2598 28.4096 11.957C28.4096 11.6541 28.2915 11.3687 28.0774 11.1546L27.0811 10.158L29.086 8.15242C29.086 8.15242 29.086 8.15241 29.086 8.15241C29.2873 7.95114 29.3983 7.68291 29.3983 7.3983C29.3983 7.11368 29.2872 6.84545 29.086 6.64419L28.7734 6.33147L30.4833 4.62105L30.3949 4.53267L30.4833 4.62104C31.3389 3.76515 31.3389 2.37284 30.4833 1.51694L30.3949 1.60532L30.4833 1.51694C29.6276 0.661019 28.2357 0.661024 27.38 1.51693ZM28.2976 7.3983L27.3806 8.31567L23.6865 4.62048L24.6036 3.70314L28.2976 7.3983ZM29.7122 3.84976L28.0023 5.56012L26.4413 3.99859L28.1511 2.28817C28.5814 1.85773 29.2819 1.85775 29.7121 2.28816L29.8005 2.1998L29.7121 2.28817C30.1424 2.71869 30.1424 3.41931 29.7122 3.84976ZM3.93985 22.8218L3.93953 22.8221L3.93985 22.8218ZM2.23899 29.7606L4.50719 24.1748L7.82304 27.4917L2.23899 29.7606ZM21.5453 6.76239L22.9155 5.39177L26.6095 9.0869L25.2393 10.4576L21.5453 6.76239ZM7.27938 20.8069C7.57143 20.8069 7.80811 20.5701 7.80811 20.278C7.80811 19.986 7.57143 19.7492 7.27938 19.7492C6.98733 19.7492 6.75064 19.986 6.75064 20.278C6.75064 20.5701 6.98733 20.8069 7.27938 20.8069Z" fill="#BC8822" stroke="#BC8822" stroke-width="0.25"/>
</svg>
