<svg width="23" height="30" viewBox="0 0 23 30" fill="none" xmlns="http://www.w3.org/2000/svg">
<path d="M22.2656 24.7266V1.52343C22.2656 0.683376 21.5822 0 20.7422 0H7.14841C6.8248 0 6.56247 0.262382 6.56247 0.585935C6.56247 0.909489 6.8248 1.17187 7.14841 1.17187H20.7422C20.9327 1.17187 21.0937 1.33289 21.0937 1.52343V24.7266C21.0937 24.9171 20.9327 25.0781 20.7422 25.0781H2.46092C1.98866 25.0781 1.54698 25.2119 1.17188 25.4434V2.46099C1.17188 1.75019 1.75018 1.17187 2.46092 1.17187C2.78453 1.17187 3.04686 0.909489 3.04686 0.585935C3.04686 0.262382 2.78453 0 2.46092 0C1.10396 0 0 1.10402 0 2.46099V27.5391C0 28.896 1.10396 30 2.46092 30H21.6797C22.0033 30 22.2656 29.7376 22.2656 29.4141C22.2656 29.0905 22.0033 28.8281 21.6797 28.8281H21.3281V26.1327C21.8781 25.9026 22.2656 25.3591 22.2656 24.7266ZM2.46092 28.8281C1.75018 28.8281 1.17188 28.2499 1.17188 27.5391C1.17188 26.8283 1.75012 26.25 2.46092 26.25H20.1562V26.9531H18.3987C18.075 26.9531 17.8127 27.2155 17.8127 27.5391C17.8127 27.8626 18.075 28.125 18.3987 28.125H20.1562V28.8281H2.46092Z" fill="#BC8822"/>
<path d="M4.8049 1.17187C5.12851 1.17187 5.39084 0.909489 5.39084 0.585935C5.39084 0.262382 5.12851 0 4.8049 0C4.48129 0 4.21873 0.262382 4.21873 0.585935C4.21873 0.909489 4.48129 1.17187 4.8049 1.17187Z" fill="#BC8822"/>
<path d="M16.0552 26.9531C15.7316 26.9531 15.469 27.2155 15.469 27.5391C15.469 27.8626 15.7316 28.125 16.0552 28.125C16.3788 28.125 16.6411 27.8626 16.6411 27.5391C16.6411 27.2155 16.3788 26.9531 16.0552 26.9531Z" fill="#BC8822"/>
<path d="M5.05386 15.7179C5.05386 17.6283 6.47043 19.214 8.30827 19.4799C8.57416 21.3177 10.1599 22.7343 12.0703 22.7343C13.9807 22.7343 15.5664 21.3177 15.8323 19.4799C17.6702 19.214 19.0867 17.6283 19.0867 15.7179V10.5321C19.0867 8.62169 17.6702 7.03597 15.8323 6.77007C15.5664 4.93223 13.9807 3.51567 12.0703 3.51567C10.1599 3.51567 8.57416 4.93223 8.30827 6.77007C6.47043 7.03597 5.05386 8.62174 5.05386 10.5321V15.7179ZM6.22574 10.5321C6.22574 9.08229 7.40523 7.90274 8.85506 7.90274C9.17868 7.90274 9.44099 7.64036 9.44099 7.31681C9.44099 5.86703 10.6205 4.68754 12.0703 4.68754C13.5202 4.68754 14.6996 5.86703 14.6996 7.31681C14.6996 7.64036 14.962 7.90274 15.2856 7.90274C16.7354 7.90274 17.9149 9.08229 17.9149 10.5321V15.7179C17.9149 17.1677 16.7354 18.3472 15.2856 18.3472C14.962 18.3472 14.6996 18.6096 14.6996 18.9331C14.6996 20.3829 13.5202 21.5625 12.0703 21.5625C10.6205 21.5625 9.44099 20.3829 9.44099 18.9331C9.44099 18.6096 9.17868 18.3472 8.85506 18.3472C7.40529 18.3472 6.22574 17.1677 6.22574 15.7179V10.5321Z" fill="#BC8822"/>
<path d="M12.0703 17.2265C14.3319 17.2265 16.1719 15.3865 16.1719 13.1249C16.1719 10.8634 14.3319 9.0234 12.0703 9.0234C9.80873 9.0234 7.96878 10.8634 7.96878 13.1249C7.96878 15.3865 9.80873 17.2265 12.0703 17.2265ZM12.0703 10.1953C13.6857 10.1953 15 11.5095 15 13.1249C15 14.7404 13.6857 16.0546 12.0703 16.0546C10.4549 16.0546 9.14064 14.7404 9.14064 13.1249C9.14064 11.5095 10.4549 10.1953 12.0703 10.1953Z" fill="#BC8822"/>
</svg>
