<svg width="30" height="30" viewBox="0 0 30 30" fill="none" xmlns="http://www.w3.org/2000/svg">
<rect width="30" height="30" rx="3" fill="#675DA9"/>
<path d="M22.3458 7.61534C21.8496 7.15917 19.8408 5.69864 15.3632 5.67863C15.3632 5.67863 10.0853 5.35851 7.51233 7.71938C6.07981 9.1519 5.57562 11.2447 5.5236 13.8456C5.47158 16.4426 5.40356 21.3123 10.0973 22.6328H10.1013L10.0973 24.6456C10.0973 24.6456 10.0693 25.4619 10.6055 25.6259C11.2537 25.826 11.6378 25.2058 12.2581 24.5375C12.5982 24.1694 13.0664 23.6332 13.4225 23.221C16.6317 23.4891 19.1006 22.8729 19.3807 22.7809C20.0289 22.5688 23.6982 22.1006 24.2945 17.2309C24.9107 12.221 23.9944 9.04786 22.3458 7.61534ZM22.89 16.8787C22.3858 20.9442 19.4127 21.2003 18.8645 21.3764C18.6324 21.4524 16.4636 21.9926 13.7346 21.8125C13.7346 21.8125 11.7019 24.2654 11.0696 24.9017C10.9696 25.0017 10.8536 25.0417 10.7775 25.0217C10.6695 24.9937 10.6375 24.8656 10.6415 24.6776C10.6415 24.4055 10.6575 21.3284 10.6575 21.3284C10.6535 21.3284 10.6535 21.3284 10.6575 21.3284C6.68403 20.228 6.91611 16.0824 6.96013 13.9136C7.00414 11.7448 7.41229 9.9642 8.62474 8.76776C10.7975 6.79904 15.2832 7.09115 15.2832 7.09115C19.0686 7.10715 20.8812 8.24757 21.3014 8.62771C22.6979 9.82815 23.4101 12.6892 22.89 16.8787Z" fill="white"/>
<path d="M17.2079 13.9897C17.0758 13.9897 16.9638 13.8856 16.9558 13.7496C16.9118 12.8893 16.5076 12.4691 15.6833 12.4251C15.5433 12.4171 15.4352 12.2971 15.4432 12.157C15.4513 12.017 15.5713 11.9089 15.7113 11.9169C16.7997 11.9769 17.408 12.6012 17.464 13.7216C17.472 13.8616 17.3639 13.9817 17.2239 13.9857C17.2159 13.9897 17.2119 13.9897 17.2079 13.9897Z" fill="white"/>
<path d="M18.5043 14.4219H18.5003C18.3603 14.4179 18.2483 14.3019 18.2523 14.1618C18.2723 13.2975 18.0242 12.5973 17.496 12.021C16.9718 11.4448 16.2475 11.1327 15.2912 11.0647C15.1511 11.0527 15.0471 10.9327 15.0591 10.7926C15.0711 10.6525 15.1911 10.5485 15.3312 10.5605C16.4116 10.6405 17.2639 11.0167 17.8721 11.6809C18.4843 12.3492 18.7804 13.1855 18.7604 14.1738C18.7564 14.3139 18.6404 14.4219 18.5043 14.4219Z" fill="white"/>
<path d="M19.8328 14.942C19.6928 14.942 19.5807 14.83 19.5807 14.6899C19.5687 13.1413 19.1246 11.9609 18.2202 11.0766C17.3279 10.2043 16.1955 9.7601 14.863 9.74809C14.723 9.74809 14.6109 9.63205 14.6109 9.492C14.6109 9.35195 14.727 9.23991 14.863 9.23991C16.3316 9.25191 17.58 9.74409 18.5684 10.7124C19.5607 11.6808 20.0689 13.0173 20.0849 14.6819C20.0889 14.826 19.9769 14.942 19.8328 14.942C19.8368 14.942 19.8368 14.942 19.8328 14.942Z" fill="white"/>
<path d="M15.7433 17.1228C15.7433 17.1228 16.0995 17.1548 16.2915 16.9187L16.6637 16.4505C16.8437 16.2184 17.2799 16.0704 17.7041 16.3065C17.9401 16.4385 18.3683 16.7026 18.6324 16.8987C18.9165 17.1068 19.4927 17.5869 19.4967 17.5909C19.7728 17.823 19.8368 18.1631 19.6488 18.5273C19.6488 18.5273 19.6488 18.5313 19.6488 18.5353C19.4567 18.8754 19.1966 19.1955 18.8725 19.4916C18.8685 19.4916 18.8685 19.4956 18.8645 19.4956C18.5964 19.7197 18.3323 19.8478 18.0762 19.8758C18.0442 19.8838 18.0082 19.8838 17.9602 19.8838C17.8481 19.8838 17.7361 19.8678 17.624 19.8318L17.616 19.8198C17.2159 19.7077 16.5516 19.4276 15.4472 18.8154C14.727 18.4192 14.1308 18.0151 13.6226 17.6109C13.3545 17.3989 13.0824 17.1628 12.8023 16.8827C12.7943 16.8747 12.7823 16.8627 12.7743 16.8547C12.7663 16.8467 12.7542 16.8347 12.7462 16.8267C12.7382 16.8187 12.7262 16.8067 12.7182 16.7986C12.7102 16.7906 12.6982 16.7786 12.6902 16.7706C12.4141 16.4905 12.174 16.2184 11.962 15.9503C11.5578 15.4462 11.1537 14.8459 10.7575 14.1257C10.1453 13.0173 9.86519 12.353 9.75315 11.9569L9.74115 11.9489C9.70513 11.8368 9.68913 11.7248 9.68913 11.6128C9.68913 11.5647 9.68913 11.5287 9.69713 11.4967C9.72914 11.2366 9.85719 10.9765 10.0773 10.7084C10.0773 10.7044 10.0813 10.7044 10.0813 10.7004C10.3774 10.3723 10.6975 10.1162 11.0376 9.92414C11.0376 9.92414 11.0416 9.92414 11.0456 9.92414C11.4058 9.73607 11.7459 9.80009 11.982 10.0762C11.982 10.0762 12.4661 10.6564 12.6742 10.9405C12.8703 11.2086 13.1344 11.6328 13.2664 11.8688C13.5025 12.293 13.3545 12.7292 13.1224 12.9092L12.6542 13.2814C12.4181 13.4734 12.4501 13.8296 12.4501 13.8296C12.4501 13.8296 13.1424 16.4625 15.7433 17.1228Z" fill="white"/>
</svg>
