<svg width="30" height="30" viewBox="0 0 30 30" fill="none" xmlns="http://www.w3.org/2000/svg">
<rect width="30" height="30" rx="3" fill="#419FD9"/>
<path fill-rule="evenodd" clip-rule="evenodd" d="M18.3347 22.4277C19.3831 22.8864 19.7763 21.9253 19.7763 21.9253L22.5503 7.98972C22.5285 7.05049 21.2616 7.61839 21.2616 7.61839L5.73151 13.7125C5.73151 13.7125 4.98886 13.9746 5.05439 14.4333C5.11992 14.892 5.70967 15.1104 5.70967 15.1104L9.61949 16.421C9.61949 16.421 10.799 20.2871 11.0393 21.0297C11.2577 21.7505 11.4543 21.7724 11.4543 21.7724C11.6727 21.8598 11.8693 21.7069 11.8693 21.7069L14.403 19.4134L18.3347 22.4277ZM19.0118 10.4579C19.0118 10.4579 19.5579 10.1303 19.536 10.4579C19.536 10.4579 19.6234 10.5016 19.3394 10.8074C19.0773 11.0695 12.8959 16.6175 12.0659 17.3602C12.0003 17.4038 11.9566 17.4694 11.9566 17.5567L11.7164 19.6099C11.6727 19.8284 11.3887 19.8502 11.3232 19.6536L10.2966 16.2899C10.2529 16.1588 10.2966 16.0059 10.4277 15.9186L19.0118 10.4579Z" fill="white"/>
</svg>
