<svg width="40" height="37" viewBox="0 0 40 37" fill="none" xmlns="http://www.w3.org/2000/svg">
<path d="M16.5625 30.0522C14.647 30.0522 13.0886 31.6106 13.0886 33.5261C13.0886 35.4416 14.647 37 16.5625 37C18.478 37 20.0363 35.4416 20.0363 33.5261C20.0363 31.6106 18.4779 30.0522 16.5625 30.0522ZM16.5625 35.0602C15.7165 35.0602 15.0282 34.3719 15.0282 33.526C15.0282 32.68 15.7165 31.9917 16.5625 31.9917C17.4084 31.9917 18.0967 32.68 18.0967 33.526C18.0967 34.372 17.4084 35.0602 16.5625 35.0602Z" fill="#BC8822"/>
<path d="M28.7475 30.0522C26.832 30.0522 25.2737 31.6106 25.2737 33.5261C25.2737 35.4416 26.832 37 28.7475 37C30.6631 37 32.2214 35.4416 32.2214 33.5261C32.2214 31.6106 30.663 30.0522 28.7475 30.0522ZM28.7475 35.0602C27.9015 35.0602 27.2133 34.3719 27.2133 33.526C27.2133 32.68 27.9016 31.9917 28.7475 31.9917C29.5936 31.9917 30.2818 32.68 30.2818 33.526C30.2818 34.372 29.5935 35.0602 28.7475 35.0602Z" fill="#BC8822"/>
<path d="M29.6028 11.7626H15.7048C15.1691 11.7626 14.7349 12.1968 14.7349 12.7324C14.7349 13.2681 15.1692 13.7022 15.7048 13.7022H29.6028C30.1385 13.7022 30.5727 13.2681 30.5727 12.7324C30.5727 12.1967 30.1385 11.7626 29.6028 11.7626Z" fill="#BC8822"/>
<path d="M28.8464 16.7988H16.4612C15.9256 16.7988 15.4914 17.233 15.4914 17.7686C15.4914 18.3043 15.9256 18.7384 16.4612 18.7384H28.8463C29.3819 18.7384 29.8161 18.3043 29.8161 17.7686C29.8161 17.2331 29.3819 16.7988 28.8464 16.7988Z" fill="#BC8822"/>
<path d="M39.0631 7.44147C38.6932 6.98753 38.1452 6.72723 37.5596 6.72723H7.35051L6.74043 3.76561C6.61306 3.14781 6.19168 2.62907 5.61299 2.3778L1.35621 0.53011C0.864783 0.316642 0.293659 0.542145 0.0804998 1.03342C-0.132891 1.52485 0.092612 2.09605 0.583811 2.30921L4.84067 4.15698L9.53325 26.9357C9.7181 27.8328 10.517 28.4839 11.433 28.4839H34.6673C35.2029 28.4839 35.6371 28.0497 35.6371 27.5141C35.6371 26.9784 35.2029 26.5443 34.6673 26.5443H11.4331L10.8623 23.7734H34.8469C35.7628 23.7734 36.5618 23.1223 36.7466 22.2252L39.4593 9.05802C39.5774 8.48466 39.433 7.89533 39.0631 7.44147ZM34.8469 21.8339H10.4627L7.75014 8.66681L37.5595 8.66688L34.8469 21.8339Z" fill="#BC8822"/>
</svg>
