<svg width="62" height="51" viewBox="0 0 62 51" fill="none" xmlns="http://www.w3.org/2000/svg">
<path d="M61.0715 17.6306L52.0965 7.49567C51.3744 6.75671 50.4459 6.33433 49.5175 6.33433H39.2014V4.11732C39.2014 0 39 0 35.2812 0H4.0233C0 0 0 0 0 2.32267V40.6454C0 44.3405 0 44.3405 3.61069 44.3405H5.23101C5.72365 47.9475 8.70703 50.6748 12.3795 50.6748C16.052 50.6748 19.0353 47.9475 19.528 44.3405H42.3691C42.8618 47.9475 45.8452 50.6748 49.5176 50.6748C53.1901 50.6748 56.1735 47.9475 56.6661 44.3405H59C60.6569 44.3405 62 42.9973 62 41.3405V20.0588C62 19.1087 61.6905 18.264 61.0715 17.6306ZM59.421 19.0031C59.7305 19.2143 59.8336 19.6366 59.8336 19.9533V23.226H44.3594V12.6688H53.747L59.421 19.0031ZM2.06327 22.1703H16.5059C17.1249 22.1703 17.5375 21.748 17.5375 21.1146C17.5375 20.4812 17.1249 20.0589 16.5059 20.0589H2.06327V16.8918H12.3794C12.9983 16.8918 13.4109 16.4695 13.4109 15.8361C13.4109 15.2027 12.9983 14.7804 12.3794 14.7804H2.06327V3.27295C2.06327 2.11161 2.06327 2.11161 4.0233 2.11161H35.1781C37.1381 2.11161 37.1381 2.11161 37.1381 3.16729V29.5603H2.06327V22.1703ZM12.3794 48.5633C9.49089 48.5633 7.22126 46.2408 7.22126 43.2847C7.22126 40.3287 9.49077 38.006 12.3794 38.006C15.2679 38.006 17.5375 40.3286 17.5375 43.2847C17.5375 46.2408 15.2679 48.5633 12.3794 48.5633ZM37.1381 42.229H19.5279C19.0659 38.8467 16.4136 36.2391 13.0567 35.9273C13.0322 35.925 13.0073 35.9237 12.9826 35.9216C12.8981 35.9147 12.8137 35.9075 12.7284 35.9034C12.6127 35.8977 12.4964 35.8945 12.3794 35.8945C12.2624 35.8945 12.1461 35.8977 12.0304 35.9034C11.945 35.9075 11.8606 35.9146 11.7761 35.9216C11.7515 35.9237 11.7266 35.925 11.702 35.9273C8.3452 36.2391 5.69282 38.8467 5.23089 42.229H3.61069C2.06327 42.229 2.06327 42.229 2.06327 40.6454V31.6718H37.1381V42.229ZM49.5175 48.5633C46.629 48.5633 44.3594 46.2408 44.3594 43.2847C44.3594 40.3287 46.6289 38.006 49.5175 38.006C52.406 38.006 54.6756 40.3286 54.6756 43.2847C54.6756 46.2408 52.406 48.5633 49.5175 48.5633ZM56.666 42.229C56.2041 38.8467 53.5517 36.2391 50.1949 35.9273C50.1703 35.925 50.1454 35.9237 50.1208 35.9216C50.0362 35.9147 49.9519 35.9075 49.8665 35.9034C49.7508 35.8977 49.6345 35.8945 49.5175 35.8945C49.4005 35.8945 49.2842 35.8977 49.1685 35.9034C49.0831 35.9075 48.9987 35.9146 48.9142 35.9216C48.8896 35.9237 48.8647 35.925 48.8401 35.9273C45.4833 36.2391 42.8309 38.8467 42.369 42.229H39.2013V8.44582H49.5175C49.827 8.44582 50.2396 8.65701 50.5491 8.86807L52.0277 10.5572H44.0499C43.1214 10.5572 42.2961 11.4018 42.2961 12.352V23.5426C42.2961 24.4927 43.1214 25.3373 44.0499 25.3373H59.8336V30.616H54.6755C54.0565 30.616 53.6439 31.0382 53.6439 31.6717C53.6439 32.3051 54.0565 32.7274 54.6755 32.7274H59.8336V41.2289C59.8336 41.7812 59.3859 42.2289 58.8336 42.2289L56.666 42.229Z" fill="#DEC593"/>
<path d="M12.3794 41.1733C11.2446 41.1733 10.3161 42.1235 10.3161 43.2848C10.3161 44.4461 11.2446 45.3963 12.3794 45.3963C13.5142 45.3963 14.4426 44.4461 14.4426 43.2848C14.4426 42.1235 13.5142 41.1733 12.3794 41.1733Z" fill="#DEC593"/>
<path d="M49.5175 41.1733C48.3827 41.1733 47.4542 42.1235 47.4542 43.2848C47.4542 44.4461 48.3827 45.3963 49.5175 45.3963C50.6523 45.3963 51.5808 44.4461 51.5808 43.2848C51.5808 42.1235 50.6523 41.1733 49.5175 41.1733Z" fill="#DEC593"/>
</svg>
