<svg width="52" height="52" viewBox="0 0 52 52" fill="none" xmlns="http://www.w3.org/2000/svg">
<path d="M50.1703 3.52107H6.24984L4.04129 1.25005C3.88572 1.09002 3.67468 1.00008 3.4546 1C3.23452 0.99992 3.02342 1.08971 2.86774 1.24962C2.71206 1.40953 2.62456 1.62645 2.62448 1.85268C2.6244 2.0789 2.71176 2.29589 2.86732 2.45591L20.1068 20.1755L7.1998 33.4426L2.40603 28.5151C2.24956 28.3598 2.03998 28.2738 1.82245 28.2758C1.60492 28.2777 1.39683 28.3674 1.243 28.5255C1.08918 28.6836 1.00192 28.8975 1.00003 29.1211C0.998141 29.3447 1.08177 29.5602 1.2329 29.721L4.53909 33.1194V47.0142C4.53909 47.2404 4.6265 47.4573 4.78209 47.6172C4.93768 47.7772 5.14871 47.867 5.36875 47.867H20.0595L23.0405 50.9311C23.2652 51.165 23.5325 51.351 23.8272 51.4786C24.1219 51.6062 24.4381 51.6729 24.7579 51.6748H24.8226C25.1465 51.6757 25.4674 51.6103 25.7665 51.4825C26.0656 51.3546 26.337 51.1669 26.5649 50.9303C26.7867 50.7027 26.9644 50.4339 27.0884 50.138C27.4618 50.3562 27.8843 50.4703 28.3138 50.4689C28.8008 50.4733 29.2782 50.3301 29.6864 50.057C30.0945 49.784 30.4153 49.3933 30.6086 48.9339C30.9809 49.1533 31.4032 49.2672 31.8324 49.2639C32.4942 49.2596 33.1289 48.9933 33.6045 48.5203C33.8063 48.3129 33.9719 48.0715 34.094 47.8065C34.532 48.1845 35.0828 48.3967 35.6546 48.4077C36.2264 48.4187 36.7845 48.2279 37.236 47.867H50.1703C50.3904 47.867 50.6014 47.7772 50.757 47.6172C50.9126 47.4573 51 47.2404 51 47.0142V4.37388C51 4.1477 50.9126 3.93078 50.757 3.77085C50.6014 3.61092 50.3904 3.52107 50.1703 3.52107ZM31.0882 5.22668V13.7547H24.4509V5.22668H31.0882ZM6.19841 46.1614V34.825L6.61323 35.2514C6.76882 35.4113 6.97981 35.5011 7.1998 35.5011C7.4198 35.5011 7.63079 35.4113 7.78637 35.2514L8.95951 34.0456L9.17771 34.2699C9.69757 34.806 10.0698 35.4743 10.2563 36.2066L10.4023 36.7856C10.6636 37.8119 11.1859 38.7482 11.9156 39.4984L18.4002 46.1614H6.19841ZM35.6903 46.7038C35.476 46.6991 35.2712 46.6121 35.1162 46.4599L33.5996 44.9001C33.444 44.7401 33.233 44.6501 33.0129 44.6501C32.7928 44.65 32.5817 44.7398 32.426 44.8997C32.2703 45.0596 32.1828 45.2765 32.1827 45.5027C32.1827 45.729 32.27 45.9459 32.4256 46.106C32.5811 46.2659 32.6685 46.4828 32.6685 46.7089C32.6685 46.935 32.5811 47.1519 32.4256 47.3118C32.3479 47.3933 32.2544 47.4571 32.1512 47.4993C32.0481 47.5414 31.9375 47.561 31.8266 47.5566C31.6117 47.5533 31.4062 47.4661 31.2516 47.3127L30.0785 46.1068C29.9213 45.9553 29.7129 45.8726 29.4975 45.8762C29.2821 45.8798 29.0764 45.9694 28.9241 46.1261C28.7718 46.2828 28.6848 46.4942 28.6814 46.7157C28.6781 46.9371 28.7587 47.1512 28.9062 47.3127C29.061 47.4725 29.1478 47.6888 29.1478 47.9143C29.1478 48.1399 29.061 48.3562 28.9062 48.516C28.7449 48.6732 28.5311 48.7608 28.3088 48.7608C28.2011 48.7674 28.0933 48.7489 27.9935 48.7065C27.8938 48.6641 27.8047 48.599 27.733 48.516L26.5599 47.3127C26.4829 47.2335 26.3914 47.1706 26.2907 47.1277C26.1901 47.0848 26.0822 47.0627 25.9732 47.0626C25.8642 47.0626 25.7563 47.0846 25.6556 47.1275C25.5549 47.1703 25.4634 47.2331 25.3863 47.3123C25.3093 47.3914 25.2481 47.4855 25.2064 47.5889C25.1646 47.6924 25.1431 47.8033 25.1431 47.9153C25.1431 48.0273 25.1645 48.1383 25.2061 48.2418C25.2478 48.3453 25.3089 48.4393 25.3859 48.5186C25.5415 48.6785 25.6288 48.8954 25.6288 49.1215C25.6288 49.3476 25.5415 49.5645 25.3859 49.7244C25.3096 49.8073 25.2166 49.8721 25.1135 49.9144C25.0103 49.9566 24.8995 49.9753 24.7886 49.9692C24.5728 49.9688 24.3658 49.8808 24.2128 49.7244L13.0954 38.2917C12.575 37.756 12.2027 37.0875 12.0168 36.355L11.87 35.7759C11.6086 34.7501 11.0866 33.8142 10.3575 33.064L10.1393 32.8397L18.9328 23.794L19.7691 24.6528C20.0995 24.9918 20.5162 25.2282 20.9713 25.335L25.1196 26.314C27.9758 26.9922 30.5082 28.6831 32.2721 31.0898L36.5117 36.8769L36.4345 36.9562C36.2811 37.1152 36.0984 37.2412 35.8971 37.327C35.6959 37.4128 35.4801 37.4566 35.2622 37.456C35.0442 37.4562 34.8283 37.4121 34.6269 37.3262C34.4256 37.2403 34.2428 37.1142 34.0891 36.9554L32.0149 34.8233C31.8263 34.6276 31.6016 34.4723 31.3541 34.3666C31.1065 34.2609 30.841 34.2069 30.573 34.2076C30.1616 34.2103 29.7601 34.3379 29.419 34.5744C29.078 34.8109 28.8125 35.1457 28.6559 35.5368C28.4994 35.9279 28.4587 36.3578 28.5391 36.7725C28.6195 37.1872 28.8174 37.5683 29.1078 37.8679L36.2287 45.1875C36.3891 45.3407 36.4896 45.5487 36.5113 45.7727C36.533 45.9966 36.4744 46.2209 36.3466 46.4036C36.2641 46.4985 36.1629 46.5744 36.0498 46.6262C35.9367 46.6779 35.8141 46.7044 35.6903 46.7038ZM49.3407 46.1614H38.1552C38.1942 45.7626 38.1464 45.3599 38.0153 44.9824C37.8841 44.605 37.6729 44.2622 37.3969 43.9791L30.2759 36.6594C30.1975 36.5783 30.1533 36.4686 30.1532 36.3541C30.1546 36.292 30.1682 36.2309 30.1932 36.1743C30.2181 36.1178 30.2539 36.067 30.2983 36.0249C30.3698 35.9516 30.4666 35.9103 30.5676 35.9103C30.6685 35.9103 30.7654 35.9516 30.8368 36.0249L32.9109 38.157C33.2184 38.4747 33.584 38.7267 33.9867 38.8984C34.3894 39.0701 34.8212 39.1581 35.2572 39.1573C35.6931 39.1585 36.1248 39.0708 36.5274 38.8993C36.93 38.7277 37.2955 38.4757 37.6027 38.1578L38.1892 37.5549C38.3308 37.4095 38.4164 37.2165 38.4304 37.0114C38.4445 36.8063 38.3859 36.6028 38.2656 36.4386L33.5921 30.0596C31.5929 27.3329 28.7229 25.4176 25.4863 24.6502L21.338 23.672C21.1856 23.6358 21.0462 23.5563 20.9356 23.4426L20.0993 22.583L21.8599 20.7733C22.0154 20.6134 22.1028 20.3965 22.1028 20.1704C22.1028 19.9443 22.0154 19.7274 21.8599 19.5675L7.90916 5.22668H22.7916V14.6076C22.7916 14.8337 22.879 15.0506 23.0346 15.2106C23.1902 15.3705 23.4012 15.4604 23.6212 15.4604H31.9178C32.1379 15.4604 32.3489 15.3705 32.5045 15.2106C32.6601 15.0506 32.7475 14.8337 32.7475 14.6076V5.22668H49.3407V46.1614Z" fill="#DEC593"/>
<path d="M39.3848 39.339H43.533C43.7531 39.339 43.9641 39.2491 44.1197 39.0892C44.2753 38.9292 44.3627 38.7123 44.3627 38.4861C44.3627 38.26 44.2753 38.0431 44.1197 37.8831C43.9641 37.7232 43.7531 37.6333 43.533 37.6333H39.3848C39.1647 37.6333 38.9537 37.7232 38.7981 37.8831C38.6425 38.0431 38.5551 38.26 38.5551 38.4861C38.5551 38.7123 38.6425 38.9292 38.7981 39.0892C38.9537 39.2491 39.1647 39.339 39.3848 39.339Z" fill="#DEC593"/>
<path d="M46.022 39.339H46.8517C47.0717 39.339 47.2827 39.2491 47.4383 39.0892C47.5939 38.9292 47.6813 38.7123 47.6813 38.4861C47.6813 38.26 47.5939 38.0431 47.4383 37.8831C47.2827 37.7232 47.0717 37.6333 46.8517 37.6333H46.022C45.802 37.6333 45.591 37.7232 45.4354 37.8831C45.2798 38.0431 45.1924 38.26 45.1924 38.4861C45.1924 38.7123 45.2798 38.9292 45.4354 39.0892C45.591 39.2491 45.802 39.339 46.022 39.339Z" fill="#DEC593"/>
<path d="M39.3848 35.9277H43.533C43.7531 35.9277 43.9641 35.8379 44.1197 35.6779C44.2753 35.518 44.3627 35.3011 44.3627 35.0749C44.3627 34.8487 44.2753 34.6318 44.1197 34.4719C43.9641 34.312 43.7531 34.2221 43.533 34.2221H39.3848C39.1647 34.2221 38.9537 34.312 38.7981 34.4719C38.6425 34.6318 38.5551 34.8487 38.5551 35.0749C38.5551 35.3011 38.6425 35.518 38.7981 35.6779C38.9537 35.8379 39.1647 35.9277 39.3848 35.9277Z" fill="#DEC593"/>
<path d="M46.022 35.9277H46.8517C47.0717 35.9277 47.2827 35.8379 47.4383 35.6779C47.5939 35.518 47.6813 35.3011 47.6813 35.0749C47.6813 34.8487 47.5939 34.6318 47.4383 34.4719C47.2827 34.312 47.0717 34.2221 46.8517 34.2221H46.022C45.802 34.2221 45.591 34.312 45.4354 34.4719C45.2798 34.6318 45.1924 34.8487 45.1924 35.0749C45.1924 35.3011 45.2798 35.518 45.4354 35.6779C45.591 35.8379 45.802 35.9277 46.022 35.9277Z" fill="#DEC593"/>
<path d="M43.533 41.0446H37.7254C37.5054 41.0446 37.2944 41.1344 37.1388 41.2943C36.9832 41.4543 36.8958 41.6712 36.8958 41.8974C36.8958 42.1236 36.9832 42.3405 37.1388 42.5004C37.2944 42.6603 37.5054 42.7502 37.7254 42.7502H43.533C43.7531 42.7502 43.9641 42.6603 44.1197 42.5004C44.2753 42.3405 44.3627 42.1236 44.3627 41.8974C44.3627 41.6712 44.2753 41.4543 44.1197 41.2943C43.9641 41.1344 43.7531 41.0446 43.533 41.0446Z" fill="#DEC593"/>
<path d="M46.022 42.7502H46.8517C47.0717 42.7502 47.2827 42.6603 47.4383 42.5004C47.5939 42.3405 47.6813 42.1236 47.6813 41.8974C47.6813 41.6712 47.5939 41.4543 47.4383 41.2943C47.2827 41.1344 47.0717 41.0446 46.8517 41.0446H46.022C45.802 41.0446 45.591 41.1344 45.4354 41.2943C45.2798 41.4543 45.1924 41.6712 45.1924 41.8974C45.1924 42.1236 45.2798 42.3405 45.4354 42.5004C45.591 42.6603 45.802 42.7502 46.022 42.7502Z" fill="#DEC593"/>
<path d="M50.1703 3.52107H6.24984L4.04129 1.25005C3.88572 1.09002 3.67468 1.00008 3.4546 1C3.23452 0.99992 3.02342 1.08971 2.86774 1.24962C2.71206 1.40953 2.62456 1.62645 2.62448 1.85268C2.6244 2.0789 2.71176 2.29589 2.86732 2.45591L20.1068 20.1755L7.1998 33.4426L2.40603 28.5151C2.24956 28.3598 2.03998 28.2738 1.82245 28.2758C1.60492 28.2777 1.39683 28.3674 1.243 28.5255C1.08918 28.6836 1.00192 28.8975 1.00003 29.1211C0.998141 29.3447 1.08177 29.5602 1.2329 29.721L4.53909 33.1194V47.0142C4.53909 47.2404 4.6265 47.4573 4.78209 47.6172C4.93768 47.7772 5.14871 47.867 5.36875 47.867H20.0595L23.0405 50.9311C23.2652 51.165 23.5325 51.351 23.8272 51.4786C24.1219 51.6062 24.4381 51.6729 24.7579 51.6748H24.8226C25.1465 51.6757 25.4674 51.6103 25.7665 51.4825C26.0656 51.3546 26.337 51.1669 26.5649 50.9303C26.7867 50.7027 26.9644 50.4339 27.0884 50.138C27.4618 50.3562 27.8843 50.4703 28.3138 50.4689C28.8008 50.4733 29.2782 50.3301 29.6864 50.057C30.0945 49.784 30.4153 49.3933 30.6086 48.9339C30.9809 49.1533 31.4032 49.2672 31.8324 49.2639C32.4942 49.2596 33.1289 48.9933 33.6045 48.5203C33.8063 48.3129 33.9719 48.0715 34.094 47.8065C34.532 48.1845 35.0828 48.3967 35.6546 48.4077C36.2264 48.4187 36.7845 48.2279 37.236 47.867H50.1703C50.3904 47.867 50.6014 47.7772 50.757 47.6172C50.9126 47.4573 51 47.2404 51 47.0142V4.37388C51 4.1477 50.9126 3.93078 50.757 3.77085C50.6014 3.61092 50.3904 3.52107 50.1703 3.52107ZM31.0882 5.22668V13.7547H24.4509V5.22668H31.0882ZM6.19841 46.1614V34.825L6.61323 35.2514C6.76882 35.4113 6.97981 35.5011 7.1998 35.5011C7.4198 35.5011 7.63079 35.4113 7.78637 35.2514L8.95951 34.0456L9.17771 34.2699C9.69757 34.806 10.0698 35.4743 10.2563 36.2066L10.4023 36.7856C10.6636 37.8119 11.1859 38.7482 11.9156 39.4984L18.4002 46.1614H6.19841ZM35.6903 46.7038C35.476 46.6991 35.2712 46.6121 35.1162 46.4599L33.5996 44.9001C33.444 44.7401 33.233 44.6501 33.0129 44.6501C32.7928 44.65 32.5817 44.7398 32.426 44.8997C32.2703 45.0596 32.1828 45.2765 32.1827 45.5027C32.1827 45.729 32.27 45.9459 32.4256 46.106C32.5811 46.2659 32.6685 46.4828 32.6685 46.7089C32.6685 46.935 32.5811 47.1519 32.4256 47.3118C32.3479 47.3933 32.2544 47.4571 32.1512 47.4993C32.0481 47.5414 31.9375 47.561 31.8266 47.5566C31.6117 47.5533 31.4062 47.4661 31.2516 47.3127L30.0785 46.1068C29.9213 45.9553 29.7129 45.8726 29.4975 45.8762C29.2821 45.8798 29.0764 45.9694 28.9241 46.1261C28.7718 46.2828 28.6848 46.4942 28.6814 46.7157C28.6781 46.9371 28.7587 47.1512 28.9062 47.3127C29.061 47.4725 29.1478 47.6888 29.1478 47.9143C29.1478 48.1399 29.061 48.3562 28.9062 48.516C28.7449 48.6732 28.5311 48.7608 28.3088 48.7608C28.2011 48.7674 28.0933 48.7489 27.9935 48.7065C27.8938 48.6641 27.8047 48.599 27.733 48.516L26.5599 47.3127C26.4829 47.2335 26.3914 47.1706 26.2907 47.1277C26.1901 47.0848 26.0822 47.0627 25.9732 47.0626C25.8642 47.0626 25.7563 47.0846 25.6556 47.1275C25.5549 47.1703 25.4634 47.2331 25.3863 47.3123C25.3093 47.3914 25.2481 47.4855 25.2064 47.5889C25.1646 47.6924 25.1431 47.8033 25.1431 47.9153C25.1431 48.0273 25.1645 48.1383 25.2061 48.2418C25.2478 48.3453 25.3089 48.4393 25.3859 48.5186C25.5415 48.6785 25.6288 48.8954 25.6288 49.1215C25.6288 49.3476 25.5415 49.5645 25.3859 49.7244C25.3096 49.8073 25.2166 49.8721 25.1135 49.9144C25.0103 49.9566 24.8995 49.9753 24.7886 49.9692C24.5728 49.9688 24.3658 49.8808 24.2128 49.7244L13.0954 38.2917C12.575 37.756 12.2027 37.0875 12.0168 36.355L11.87 35.7759C11.6086 34.7501 11.0866 33.8142 10.3575 33.064L10.1393 32.8397L18.9328 23.794L19.7691 24.6528C20.0995 24.9918 20.5162 25.2282 20.9713 25.335L25.1196 26.314C27.9758 26.9922 30.5082 28.6831 32.2721 31.0898L36.5117 36.8769L36.4345 36.9562C36.2811 37.1152 36.0984 37.2412 35.8971 37.327C35.6959 37.4128 35.4801 37.4566 35.2622 37.456C35.0442 37.4562 34.8283 37.4121 34.6269 37.3262C34.4256 37.2403 34.2428 37.1142 34.0891 36.9554L32.0149 34.8233C31.8263 34.6276 31.6016 34.4723 31.3541 34.3666C31.1065 34.2609 30.841 34.2069 30.573 34.2076C30.1616 34.2103 29.7601 34.3379 29.419 34.5744C29.078 34.8109 28.8125 35.1457 28.6559 35.5368C28.4994 35.9279 28.4587 36.3578 28.5391 36.7725C28.6195 37.1872 28.8174 37.5683 29.1078 37.8679L36.2287 45.1875C36.3891 45.3407 36.4896 45.5487 36.5113 45.7727C36.533 45.9966 36.4744 46.2209 36.3466 46.4036C36.2641 46.4985 36.1629 46.5744 36.0498 46.6262C35.9367 46.6779 35.8141 46.7044 35.6903 46.7038ZM49.3407 46.1614H38.1552C38.1942 45.7626 38.1464 45.3599 38.0153 44.9824C37.8841 44.605 37.6729 44.2622 37.3969 43.9791L30.2759 36.6594C30.1975 36.5783 30.1533 36.4686 30.1532 36.3541C30.1546 36.292 30.1682 36.2309 30.1932 36.1743C30.2181 36.1178 30.2539 36.067 30.2983 36.0249C30.3698 35.9516 30.4666 35.9103 30.5676 35.9103C30.6685 35.9103 30.7654 35.9516 30.8368 36.0249L32.9109 38.157C33.2184 38.4747 33.584 38.7267 33.9867 38.8984C34.3894 39.0701 34.8212 39.1581 35.2572 39.1573C35.6931 39.1585 36.1248 39.0708 36.5274 38.8993C36.93 38.7277 37.2955 38.4757 37.6027 38.1578L38.1892 37.5549C38.3308 37.4095 38.4164 37.2165 38.4304 37.0114C38.4445 36.8063 38.3859 36.6028 38.2656 36.4386L33.5921 30.0596C31.5929 27.3329 28.7229 25.4176 25.4863 24.6502L21.338 23.672C21.1856 23.6358 21.0462 23.5563 20.9356 23.4426L20.0993 22.583L21.8599 20.7733C22.0154 20.6134 22.1028 20.3965 22.1028 20.1704C22.1028 19.9443 22.0154 19.7274 21.8599 19.5675L7.90916 5.22668H22.7916V14.6076C22.7916 14.8337 22.879 15.0506 23.0346 15.2106C23.1902 15.3705 23.4012 15.4604 23.6212 15.4604H31.9178C32.1379 15.4604 32.3489 15.3705 32.5045 15.2106C32.6601 15.0506 32.7475 14.8337 32.7475 14.6076V5.22668H49.3407V46.1614Z" stroke="#DEC593" stroke-width="0.25"/>
<path d="M39.3848 39.339H43.533C43.7531 39.339 43.9641 39.2491 44.1197 39.0892C44.2753 38.9292 44.3627 38.7123 44.3627 38.4861C44.3627 38.26 44.2753 38.0431 44.1197 37.8831C43.9641 37.7232 43.7531 37.6333 43.533 37.6333H39.3848C39.1647 37.6333 38.9537 37.7232 38.7981 37.8831C38.6425 38.0431 38.5551 38.26 38.5551 38.4861C38.5551 38.7123 38.6425 38.9292 38.7981 39.0892C38.9537 39.2491 39.1647 39.339 39.3848 39.339Z" stroke="#DEC593" stroke-width="0.25"/>
<path d="M46.022 39.339H46.8517C47.0717 39.339 47.2827 39.2491 47.4383 39.0892C47.5939 38.9292 47.6813 38.7123 47.6813 38.4861C47.6813 38.26 47.5939 38.0431 47.4383 37.8831C47.2827 37.7232 47.0717 37.6333 46.8517 37.6333H46.022C45.802 37.6333 45.591 37.7232 45.4354 37.8831C45.2798 38.0431 45.1924 38.26 45.1924 38.4861C45.1924 38.7123 45.2798 38.9292 45.4354 39.0892C45.591 39.2491 45.802 39.339 46.022 39.339Z" stroke="#DEC593" stroke-width="0.25"/>
<path d="M39.3848 35.9277H43.533C43.7531 35.9277 43.9641 35.8379 44.1197 35.6779C44.2753 35.518 44.3627 35.3011 44.3627 35.0749C44.3627 34.8487 44.2753 34.6318 44.1197 34.4719C43.9641 34.312 43.7531 34.2221 43.533 34.2221H39.3848C39.1647 34.2221 38.9537 34.312 38.7981 34.4719C38.6425 34.6318 38.5551 34.8487 38.5551 35.0749C38.5551 35.3011 38.6425 35.518 38.7981 35.6779C38.9537 35.8379 39.1647 35.9277 39.3848 35.9277Z" stroke="#DEC593" stroke-width="0.25"/>
<path d="M46.022 35.9277H46.8517C47.0717 35.9277 47.2827 35.8379 47.4383 35.6779C47.5939 35.518 47.6813 35.3011 47.6813 35.0749C47.6813 34.8487 47.5939 34.6318 47.4383 34.4719C47.2827 34.312 47.0717 34.2221 46.8517 34.2221H46.022C45.802 34.2221 45.591 34.312 45.4354 34.4719C45.2798 34.6318 45.1924 34.8487 45.1924 35.0749C45.1924 35.3011 45.2798 35.518 45.4354 35.6779C45.591 35.8379 45.802 35.9277 46.022 35.9277Z" stroke="#DEC593" stroke-width="0.25"/>
<path d="M43.533 41.0446H37.7254C37.5054 41.0446 37.2944 41.1344 37.1388 41.2943C36.9832 41.4543 36.8958 41.6712 36.8958 41.8974C36.8958 42.1236 36.9832 42.3405 37.1388 42.5004C37.2944 42.6603 37.5054 42.7502 37.7254 42.7502H43.533C43.7531 42.7502 43.9641 42.6603 44.1197 42.5004C44.2753 42.3405 44.3627 42.1236 44.3627 41.8974C44.3627 41.6712 44.2753 41.4543 44.1197 41.2943C43.9641 41.1344 43.7531 41.0446 43.533 41.0446Z" stroke="#DEC593" stroke-width="0.25"/>
<path d="M46.022 42.7502H46.8517C47.0717 42.7502 47.2827 42.6603 47.4383 42.5004C47.5939 42.3405 47.6813 42.1236 47.6813 41.8974C47.6813 41.6712 47.5939 41.4543 47.4383 41.2943C47.2827 41.1344 47.0717 41.0446 46.8517 41.0446H46.022C45.802 41.0446 45.591 41.1344 45.4354 41.2943C45.2798 41.4543 45.1924 41.6712 45.1924 41.8974C45.1924 42.1236 45.2798 42.3405 45.4354 42.5004C45.591 42.6603 45.802 42.7502 46.022 42.7502Z" stroke="#DEC593" stroke-width="0.25"/>
</svg>
