<svg width="20" height="19" viewBox="0 0 20 19" fill="none" xmlns="http://www.w3.org/2000/svg">
<path d="M20 9.25C20 10.5625 18.9375 11.25 17.5 11.25H13.3125C13.625 12.375 13.75 13.4375 13.75 14.375C13.75 18 12.75 18.75 11.875 18.75C11.3125 18.75 10.875 18.6875 10.3125 18.375C10.125 18.25 10.0625 18.125 10 17.9375L9.375 14.5625C8.6875 12.8125 7 11.25 5.625 10.1875V1.25C6.125 1.25 6.625 1 7.25 0.6875C7.9375 0.375 8.625 0 9.375 0H15.3125C16.5625 0 17.5 1 17.5 1.875C17.5 2.0625 17.5 2.1875 17.4375 2.3125C18.1875 2.625 18.75 3.25 18.75 4.0625C18.75 4.4375 18.6875 4.75 18.5625 5.0625C19.0625 5.375 19.5 5.9375 19.5 6.5625C19.5 6.9375 19.3125 7.3125 19.125 7.625C19.625 8 20 8.625 20 9.25ZM18.6875 9.25C18.6875 8.4375 17.875 8.375 17.75 8C17.625 7.5625 18.25 7.4375 18.25 6.6875C18.25 5.9375 17.3125 5.9375 17.1875 5.5C17.0625 5 17.5 4.875 17.5 4.125V4C17.375 3.375 16.4375 3.3125 16.25 3.0625C16.0625 2.75 16.25 2.625 16.25 1.9375C16.25 1.5625 15.8125 1.3125 15.3125 1.3125H9.375C8.875 1.3125 8.375 1.5625 7.75 1.875C7.25 2.125 6.75 2.375 6.25 2.5V9.0625C7.8125 10.25 9.8125 12 10.5625 14.1875V14.3125L11.125 17.4375C11.375 17.5 11.5625 17.5 11.875 17.5C12 17.5 12.5 16.75 12.5 14.375C12.5 13.4375 12.3125 12.4375 12 11.25H11.875C11.5 11.25 11.25 11 11.25 10.625C11.25 10.25 11.5 10 11.875 10H17.5C18.125 10 18.6875 9.6875 18.6875 9.25Z" fill="#BC8822"/>
<path d="M5 0H1.25C0.5625 0 0 0.5625 0 1.25V10C0 10.6875 0.5625 11.25 1.25 11.25H5C5.6875 11.25 6.25 10.6875 6.25 10V1.25C6.25 0.5625 5.6875 0 5 0ZM1.25 10V1.25H5V10H1.25Z" fill="#BC8822"/>
</svg>
