<svg width="30" height="30" viewBox="0 0 30 30" fill="none" xmlns="http://www.w3.org/2000/svg">
<path d="M15 30C23.2843 30 30 23.2843 30 15C30 6.71573 23.2843 0 15 0C6.71573 0 0 6.71573 0 15C0 23.2843 6.71573 30 15 30Z" fill="#FFCC4D"/>
<path d="M21.2386 22.8157C21.2011 22.6665 20.2653 19.1665 15.0011 19.1665C9.73612 19.1665 8.80112 22.6665 8.76362 22.8157C8.71779 22.9965 8.79946 23.184 8.96112 23.2773C9.12362 23.3698 9.32696 23.3423 9.46112 23.2132C9.47696 23.1973 11.0895 21.6665 15.0011 21.6665C18.9128 21.6665 20.5261 23.1973 20.5411 23.2123C20.6211 23.2915 20.7278 23.3332 20.8345 23.3332C20.9045 23.3332 20.9753 23.3157 21.0395 23.2798C21.2028 23.1865 21.2845 22.9973 21.2386 22.8157Z" fill="#664500"/>
<path d="M10.0008 14.1663C11.1514 14.1663 12.0841 12.8605 12.0841 11.2497C12.0841 9.63884 11.1514 8.33301 10.0008 8.33301C8.85022 8.33301 7.91748 9.63884 7.91748 11.2497C7.91748 12.8605 8.85022 14.1663 10.0008 14.1663Z" fill="#664500"/>
<path d="M20.0003 14.1663C21.1509 14.1663 22.0837 12.8605 22.0837 11.2497C22.0837 9.63884 21.1509 8.33301 20.0003 8.33301C18.8497 8.33301 17.917 9.63884 17.917 11.2497C17.917 12.8605 18.8497 14.1663 20.0003 14.1663Z" fill="#664500"/>
</svg>
