<svg width="30" height="30" viewBox="0 0 30 30" fill="none" xmlns="http://www.w3.org/2000/svg">
<path d="M30 15C30 23.2842 23.2842 30 15 30C6.71667 30 0 23.2842 0 15C0 6.71667 6.71667 0 15 0C23.2842 0 30 6.71667 30 15Z" fill="#FFCC4D"/>
<path d="M9.58333 16.6666C10.7339 16.6666 11.6667 15.3607 11.6667 13.7499C11.6667 12.1391 10.7339 10.8333 9.58333 10.8333C8.43274 10.8333 7.5 12.1391 7.5 13.7499C7.5 15.3607 8.43274 16.6666 9.58333 16.6666Z" fill="#664500"/>
<path d="M20.4168 16.6666C21.5674 16.6666 22.5002 15.3607 22.5002 13.7499C22.5002 12.1391 21.5674 10.8333 20.4168 10.8333C19.2662 10.8333 18.3335 12.1391 18.3335 13.7499C18.3335 15.3607 19.2662 16.6666 20.4168 16.6666Z" fill="#664500"/>
<path d="M20.8335 21.6667H9.16683C8.70683 21.6667 8.3335 21.2942 8.3335 20.8333C8.3335 20.3725 8.70683 20 9.16683 20H20.8335C21.2943 20 21.6668 20.3725 21.6668 20.8333C21.6668 21.2942 21.2943 21.6667 20.8335 21.6667Z" fill="#664500"/>
</svg>
