<svg width="30" height="30" viewBox="0 0 30 30" fill="none" xmlns="http://www.w3.org/2000/svg">
<path d="M15 30C23.2843 30 30 23.2843 30 15C30 6.71573 23.2843 0 15 0C6.71573 0 0 6.71573 0 15C0 23.2843 6.71573 30 15 30Z" fill="#FFCC4D"/>
<path d="M15.0002 17.5C11.981 17.5 9.97766 17.1484 7.50016 16.6667C6.93433 16.5575 5.8335 16.6667 5.8335 18.3334C5.8335 21.6667 9.66266 25.8334 15.0002 25.8334C20.3368 25.8334 24.1668 21.6667 24.1668 18.3334C24.1668 16.6667 23.066 16.5567 22.5002 16.6667C20.0227 17.1484 18.0193 17.5 15.0002 17.5Z" fill="#664500"/>
<path d="M7.5 18.3333C7.5 18.3333 10 19.1666 15 19.1666C20 19.1666 22.5 18.3333 22.5 18.3333C22.5 18.3333 20.8333 21.6666 15 21.6666C9.16667 21.6666 7.5 18.3333 7.5 18.3333Z" fill="white"/>
<path d="M9.99984 14.1666C11.1504 14.1666 12.0832 12.8607 12.0832 11.2499C12.0832 9.63909 11.1504 8.33325 9.99984 8.33325C8.84924 8.33325 7.9165 9.63909 7.9165 11.2499C7.9165 12.8607 8.84924 14.1666 9.99984 14.1666Z" fill="#664500"/>
<path d="M19.9998 14.1666C21.1504 14.1666 22.0832 12.8607 22.0832 11.2499C22.0832 9.63909 21.1504 8.33325 19.9998 8.33325C18.8492 8.33325 17.9165 9.63909 17.9165 11.2499C17.9165 12.8607 18.8492 14.1666 19.9998 14.1666Z" fill="#664500"/>
</svg>
