<svg width="24" height="24" viewBox="0 0 24 24" fill="none" xmlns="http://www.w3.org/2000/svg">
<path fill-rule="evenodd" clip-rule="evenodd" d="M13.8069 5.45238L15.5414 7.13637L7.85077 14.8352C7.46487 15.2235 7.46487 15.8484 7.85077 16.2367C8.21697 16.6052 8.82871 16.6035 9.191 16.2347L17.6524 7.76084C18.8877 6.5181 18.8877 4.52225 17.6524 3.27951C16.4738 2.0938 14.3885 2.12017 13.2335 3.28176L3.99802 12.5243C1.91291 14.6212 1.91291 17.9883 3.99802 20.0852C6.02276 22.1214 9.50096 22.0882 11.4941 20.0833L22.2653 9.29872L24 10.9826L13.2308 21.7652C10.2925 24.7208 5.24633 24.7689 2.25957 21.7653C-0.753536 18.7352 -0.753536 13.8743 2.26165 10.8421L11.4971 1.5996C13.5949 -0.510065 17.2482 -0.556272 19.3912 1.59978C21.554 3.77568 21.554 7.26467 19.3893 9.44253L10.9329 17.9113C9.62482 19.2432 7.43643 19.2492 6.11184 17.9163C4.79858 16.5949 4.79858 14.477 6.11403 13.1534L13.8069 5.45238Z" fill="white"/>
</svg>
