<svg width="50" height="50" viewBox="0 0 50 50" fill="none" xmlns="http://www.w3.org/2000/svg">
<path d="M8.33373 36.0479L10.4561 34.7829C11.1031 34.3979 11.8433 34.1947 12.5972 34.1943H15.7914C16.4453 34.1931 17.0963 34.2769 17.7287 34.4428L27.3527 37.0129C28.4049 37.302 29.2501 38.0816 29.6187 39.1037L38.0839 34.5477C38.7703 34.1591 39.574 34.0271 40.3495 34.1752C40.6421 34.2267 40.9257 34.3194 41.1922 34.4505C41.794 34.7371 42.2933 35.2002 42.6237 35.7771C42.9126 36.2794 43.0644 36.8482 43.0644 37.4266C43.0733 38.6079 42.4442 39.7025 41.4172 40.2943L26.2455 49.3251C25.5863 49.7311 24.8271 49.946 24.0519 49.946H12.3104C11.7859 49.9464 11.2663 49.8477 10.7788 49.6558L8.33373 48.6952C8.33373 49.386 7.7737 49.946 7.08288 49.946H2.0004C0.895828 49.946 0.000396729 49.0506 0.000396729 47.946V35.3652C0.000396729 34.2607 0.895828 33.3652 2.0004 33.3652H6.33373C7.4383 33.3652 8.33373 34.2607 8.33373 35.3652V36.0479ZM11.3912 48.1139C11.6829 48.2285 11.9942 48.2876 12.3079 48.288H24.0519C24.5215 48.2876 24.9817 48.156 25.3796 47.9083L40.5721 38.8669C41.0884 38.5702 41.4046 38.0205 41.4005 37.4275C41.3993 37.1368 41.3224 36.851 41.1772 36.5984C41.0111 36.3122 40.7613 36.0827 40.4614 35.941C40.3292 35.877 40.1892 35.8317 40.0447 35.8066C39.9394 35.7872 39.8323 35.7771 39.7253 35.7771C39.4389 35.7763 39.1573 35.8507 38.9087 35.9924L29.7294 40.927C29.7188 40.9776 29.7188 41.0274 29.7054 41.078C29.3107 42.5252 27.9911 43.5303 26.4836 43.5319C26.0197 43.4898 25.5603 43.408 25.1103 43.2882L16.4522 40.9833L16.8819 39.3814L25.5119 41.6763C25.8919 41.7633 26.3822 41.8629 26.4836 41.8714C27.2363 41.8726 27.8963 41.3723 28.0945 40.6501C28.1213 40.5497 28.1372 40.4469 28.1429 40.3433C28.1429 40.3433 28.1494 40.1425 28.1429 40.072C28.0794 39.3786 27.5911 38.7965 26.9169 38.6099L17.2969 36.0495C16.8058 35.9187 16.2996 35.8524 15.7914 35.8524H12.5972C12.1448 35.8524 11.7008 35.9746 11.3131 36.2058L8.33373 37.9804V46.9116L11.3912 48.1139ZM6.66706 36.0233C6.66706 35.471 6.21935 35.0233 5.66706 35.0233H2.66706C2.11478 35.0233 1.66706 35.471 1.66706 36.0233V47.288C1.66706 47.8402 2.11478 48.288 2.66706 48.288H5.66706C6.21935 48.288 6.66706 47.8402 6.66706 47.288V36.0233Z" fill="#DEC593"/>
<path d="M15.6299 6.83642L20.1001 2.38966C21.5035 0.985401 23.4131 0.198465 25.4032 0.204132H35.8801C36.5267 0.204942 37.1643 0.355123 37.7433 0.641724L39.611 1.57115C39.9854 1.75857 40.4012 1.84804 40.8199 1.83144L41.6667 1.80189V0.204132H50V18.4429H41.6667V15.9558H40.2498L39.7457 16.2873C38.335 17.2192 36.6923 17.7454 35 17.807V26.3914C35 27.4959 34.1046 28.3914 33 28.3914H2C0.895432 28.3914 0 27.4959 0 26.3914V8.83642C0 7.73185 0.895432 6.83642 2 6.83642H15.6299ZM43.3333 16.7849H48.3333V1.8622H43.3333V16.7849ZM38.8232 14.9078L39.7502 14.2977H41.6667V3.46077L40.8809 3.4887C40.1831 3.51339 39.4906 3.36402 38.866 3.05435L36.9999 2.12492C36.6524 1.95207 36.2687 1.8622 35.8801 1.8622H25.4032C23.8554 1.85775 22.3698 2.46981 21.2785 3.56157L17.9867 6.83642H24.8633L26.886 4.82455L28.064 5.99645L22.1773 11.8531C21.5234 12.5008 21.5214 13.5533 22.1724 14.2042C22.8239 14.8548 23.8818 14.8568 24.5357 14.2091L29.4523 9.31786L30.0358 9.81536C31.6467 11.1763 34.0015 11.2111 35.6527 9.89794L36.1357 9.50852L37.1859 10.7966L36.6976 11.1905C36.1869 11.5965 35.6136 11.9179 35 12.1422V16.1481C36.3639 16.0878 37.686 15.6591 38.8232 14.9078ZM26.969 14.1318L25.7117 15.383C24.4063 16.6622 22.3108 16.6642 21.0034 15.3871C22.2266 17.2714 21.744 19.7792 19.9076 21.0806C18.0713 22.3821 15.531 22.0165 14.1406 20.2512C12.7502 18.4854 13.0013 15.9441 14.7111 14.4819C16.4205 13.0198 18.984 13.1538 20.5298 14.7859C19.9605 13.8966 19.8588 12.7882 20.2568 11.8106H9.0975C8.73902 13.8966 7.09676 15.5304 5 15.887V19.3408C7.09676 19.6974 8.73902 21.3312 9.0975 23.4171H25.9025C26.261 21.3312 27.9032 19.6974 30 19.3408V15.887C28.809 15.6874 27.7319 15.0636 26.969 14.1318ZM20 17.6139C20 16.2404 18.8806 15.1268 17.5 15.1268C16.1194 15.1268 15 16.2404 15 17.6139C15 18.9874 16.1194 20.101 17.5 20.101C18.8806 20.101 20 18.9874 20 17.6139ZM1.66667 25.7333C1.66667 26.2856 2.11438 26.7333 2.66667 26.7333H32.3333C32.8856 26.7333 33.3333 26.2856 33.3333 25.7333V12.4895C32.0121 12.5883 30.695 12.2531 29.5833 11.5362L28.1616 12.9506C28.787 13.7958 29.7782 14.2957 30.8333 14.2977H31.6667V20.93H30.8333C28.9925 20.93 27.5 22.4148 27.5 24.2462V25.0752H7.5V24.2462C7.5 22.4148 6.00749 20.93 4.16667 20.93H3.33334V14.2977H4.16667C6.00749 14.2977 7.5 12.8129 7.5 10.9816V10.1526H21.5299L23.1966 8.49449H2.66667C2.11438 8.49449 1.66667 8.94221 1.66667 9.49449V25.7333Z" fill="#DEC593"/>
</svg>
