<svg width="20" height="19" viewBox="0 0 20 19" fill="none" xmlns="http://www.w3.org/2000/svg">
<path d="M20 9.5C20 8.1875 18.9375 7.5 17.5 7.5H13.3125C13.625 6.375 13.75 5.3125 13.75 4.375C13.75 0.75 12.75 0 11.875 0C11.3125 0 10.875 0.0625002 10.3125 0.375C10.125 0.5 10.0625 0.625 10 0.8125L9.375 4.1875C8.6875 5.9375 7 7.5 5.625 8.5625V17.5C6.125 17.5 6.625 17.75 7.25 18.0625C7.9375 18.375 8.625 18.75 9.375 18.75H15.3125C16.5625 18.75 17.5 17.75 17.5 16.875C17.5 16.6875 17.5 16.5625 17.4375 16.4375C18.1875 16.125 18.75 15.5 18.75 14.6875C18.75 14.3125 18.6875 14 18.5625 13.6875C19.0625 13.375 19.5 12.8125 19.5 12.1875C19.5 11.8125 19.3125 11.4375 19.125 11.125C19.625 10.75 20 10.125 20 9.5ZM18.6875 9.5C18.6875 10.3125 17.875 10.375 17.75 10.75C17.625 11.1875 18.25 11.3125 18.25 12.0625C18.25 12.8125 17.3125 12.8125 17.1875 13.25C17.0625 13.75 17.5 13.875 17.5 14.625V14.75C17.375 15.375 16.4375 15.4375 16.25 15.6875C16.0625 16 16.25 16.125 16.25 16.8125C16.25 17.1875 15.8125 17.4375 15.3125 17.4375H9.375C8.875 17.4375 8.375 17.1875 7.75 16.875C7.25 16.625 6.75 16.375 6.25 16.25V9.6875C7.8125 8.5 9.8125 6.75 10.5625 4.5625V4.4375L11.125 1.3125C11.375 1.25 11.5625 1.25 11.875 1.25C12 1.25 12.5 2 12.5 4.375C12.5 5.3125 12.3125 6.3125 12 7.5H11.875C11.5 7.5 11.25 7.75 11.25 8.125C11.25 8.5 11.5 8.75 11.875 8.75H17.5C18.125 8.75 18.6875 9.0625 18.6875 9.5Z" fill="#DEC593"/>
<path d="M5 18.75H1.25C0.5625 18.75 0 18.1875 0 17.5V8.75C0 8.0625 0.5625 7.5 1.25 7.5H5C5.6875 7.5 6.25 8.0625 6.25 8.75V17.5C6.25 18.1875 5.6875 18.75 5 18.75ZM1.25 8.75V17.5H5V8.75H1.25Z" fill="#DEC593"/>
</svg>
