<svg width="202" height="78" viewBox="0 0 202 78" fill="none" xmlns="http://www.w3.org/2000/svg">
<path d="M0.798828 72.6074L2.91797 72.1973V57.9102L0.798828 57.5V55.0938H8.93359V57.5L6.91016 57.9102V63.2285H8.70117L12.4336 57.8555C13.2266 56.7435 13.9284 55.9733 14.5391 55.5449C15.1497 55.1165 15.9609 54.9023 16.9727 54.9023C17.4375 54.9023 17.8704 54.9661 18.2715 55.0938C18.6725 55.2214 19.0417 55.39 19.3789 55.5996L18.709 58.5938C18.4173 58.5299 18.2168 58.4889 18.1074 58.4707C18.0072 58.4434 17.8659 58.4297 17.6836 58.4297C17.2643 58.4297 16.877 58.5482 16.5215 58.7852C16.166 59.0221 15.7376 59.4642 15.2363 60.1113L12.1191 64.377L17.6289 72.2656L19.7207 72.6074V75H11.832V72.6074L12.9668 72.4434L9.24805 66.8516H6.91016V72.1973L8.93359 72.6074V75H0.798828V72.6074ZM38.5742 65.1973C38.5742 68.1139 37.7402 70.5247 36.0723 72.4297C34.4043 74.3346 32.2214 75.2871 29.5234 75.2871C26.8346 75.2871 24.6608 74.3346 23.002 72.4297C21.3522 70.5247 20.5273 68.1139 20.5273 65.1973V64.8965C20.5273 61.998 21.3522 59.5918 23.002 57.6777C24.6517 55.7637 26.821 54.8066 29.5098 54.8066C32.2077 54.8066 34.3906 55.7637 36.0586 57.6777C37.7357 59.5918 38.5742 61.998 38.5742 64.8965V65.1973ZM34.5957 64.8691C34.5957 62.8092 34.1673 61.1367 33.3105 59.8516C32.4538 58.5664 31.1868 57.9238 29.5098 57.9238C27.8327 57.9238 26.5794 58.5618 25.75 59.8379C24.9297 61.1139 24.5195 62.791 24.5195 64.8691V65.1973C24.5195 67.2936 24.9342 68.9844 25.7637 70.2695C26.6022 71.5456 27.8555 72.1836 29.5234 72.1836C31.2096 72.1836 32.4766 71.5456 33.3242 70.2695C34.1719 68.9844 34.5957 67.2936 34.5957 65.1973V64.8691ZM49.6484 55.0938C51.9271 55.0938 53.7227 55.6816 55.0352 56.8574C56.3568 58.0241 57.0176 59.5553 57.0176 61.4512C57.0176 63.3561 56.3568 64.8874 55.0352 66.0449C53.7227 67.2025 51.9271 67.7812 49.6484 67.7812H46.2852V72.1973L48.418 72.6074V75H40.1738V72.6074L42.293 72.1973V57.9102L40.1738 57.5V55.0938H42.293H49.6484ZM46.2852 64.7051H49.6484C50.7604 64.7051 51.599 64.4043 52.1641 63.8027C52.7383 63.1921 53.0254 62.4173 53.0254 61.4785C53.0254 60.5215 52.7383 59.7331 52.1641 59.1133C51.599 58.4844 50.7604 58.1699 49.6484 58.1699H46.2852V64.7051ZM54.8711 72.6074L56.293 72.4023L62.3496 55.0938H66.4375L72.4531 72.4023L73.875 72.6074V75H67.0938V72.6074L68.4746 72.3613L67.5996 69.627H61.1465L60.2715 72.3613L61.6523 72.6074V75H54.8711V72.6074ZM62.0898 66.6875H66.6562L64.4141 59.6738H64.332L62.0898 66.6875ZM75.2012 57.5V55.0938H83.4453V57.5L81.3125 57.9102V63.6523H89.4336V57.9102L87.3008 57.5V55.0938H89.4336H93.4121H95.5449V57.5L93.4121 57.9102V72.1973L95.5449 72.6074V75H87.3008V72.6074L89.4336 72.1973V66.7285H81.3125V72.1973L83.4453 72.6074V75H75.2012V72.6074L77.3203 72.1973V57.9102L75.2012 57.5ZM113.441 55.0938C115.72 55.0938 117.516 55.6816 118.828 56.8574C120.15 58.0241 120.811 59.5553 120.811 61.4512C120.811 63.3561 120.15 64.8874 118.828 66.0449C117.516 67.2025 115.72 67.7812 113.441 67.7812H110.078V72.1973L112.211 72.6074V75H103.967V72.6074L106.086 72.1973V57.9102L103.967 57.5V55.0938H106.086H113.441ZM110.078 64.7051H113.441C114.553 64.7051 115.392 64.4043 115.957 63.8027C116.531 63.1921 116.818 62.4173 116.818 61.4785C116.818 60.5215 116.531 59.7331 115.957 59.1133C115.392 58.4844 114.553 58.1699 113.441 58.1699H110.078V64.7051ZM140.279 57.5L138.338 57.7598L132.664 71.2266C132.081 72.5299 131.397 73.5326 130.613 74.2344C129.829 74.9362 128.708 75.2871 127.25 75.2871C127.022 75.2871 126.762 75.278 126.471 75.2598C126.188 75.2507 125.974 75.237 125.828 75.2188L125.801 72.1699C125.901 72.1882 126.074 72.2018 126.32 72.2109C126.566 72.2201 126.753 72.2246 126.881 72.2246C127.601 72.2246 128.139 72.0651 128.494 71.7461C128.859 71.4271 129.164 70.944 129.41 70.2969L129.711 69.5449L123.996 57.7871L121.877 57.5V55.0938H129.191V57.5L128.193 57.6914L131.078 63.9395L131.393 64.9922H131.475L134.223 57.7324L133.033 57.5V55.0938H140.279V57.5ZM152.898 72.6074L155.018 72.1973V67.3301C154.407 67.4759 153.728 67.5898 152.98 67.6719C152.233 67.7448 151.568 67.7812 150.984 67.7812C148.542 67.7812 146.65 67.2526 145.311 66.1953C143.98 65.138 143.314 63.502 143.314 61.2871V57.9102L141.182 57.5V55.0938H147.293H149.426V57.5L147.293 57.9102V61.2871C147.293 62.5814 147.585 63.4746 148.168 63.9668C148.751 64.459 149.69 64.7051 150.984 64.7051C151.549 64.7051 152.21 64.6686 152.967 64.5957C153.732 64.5137 154.416 64.3997 155.018 64.2539V57.9102L152.898 57.5V55.0938H155.018H159.01H161.143V57.5L159.01 57.9102V72.1973L161.143 72.6074V75H152.898V72.6074ZM162.592 72.6074L164.711 72.1973V57.9102L162.592 57.5V55.0938H170.727V57.5L168.703 57.9102V63.2285H170.494L174.227 57.8555C175.02 56.7435 175.721 55.9733 176.332 55.5449C176.943 55.1165 177.754 54.9023 178.766 54.9023C179.23 54.9023 179.663 54.9661 180.064 55.0938C180.465 55.2214 180.835 55.39 181.172 55.5996L180.502 58.5938C180.21 58.5299 180.01 58.4889 179.9 58.4707C179.8 58.4434 179.659 58.4297 179.477 58.4297C179.057 58.4297 178.67 58.5482 178.314 58.7852C177.959 59.0221 177.531 59.4642 177.029 60.1113L173.912 64.377L179.422 72.2656L181.514 72.6074V75H173.625V72.6074L174.76 72.4434L171.041 66.8516H168.703V72.1973L170.727 72.6074V75H162.592V72.6074ZM182.402 72.6074L183.824 72.4023L189.881 55.0938H193.969L199.984 72.4023L201.406 72.6074V75H194.625V72.6074L196.006 72.3613L195.131 69.627H188.678L187.803 72.3613L189.184 72.6074V75H182.402V72.6074ZM189.621 66.6875H194.188L191.945 59.6738H191.863L189.621 66.6875Z" fill="url(#paint0_linear)"/>
<path d="M101.247 24.4444C92.8062 24.4444 85.9361 17.4644 85.9361 8.88889C85.9361 8.09556 86.0105 7.24889 86.1658 6.3L87.0822 0.71333L82.6706 4.17778C77.7953 8.00666 75 13.7711 75 20C75 31.0289 83.8298 40 94.685 40C104.329 40 112.487 32.9867 114.079 23.32L115 17.7289L110.584 21.1956C107.876 23.32 104.648 24.4444 101.247 24.4444ZM94.685 35.5556C86.2445 35.5556 79.3745 28.5756 79.3745 20C79.3745 16.9978 80.2122 14.1311 81.752 11.6778C83.0927 21.3911 91.3233 28.8889 101.247 28.8889C103.583 28.8889 105.857 28.4778 108.001 27.6756C105.359 32.4422 100.352 35.5556 94.685 35.5556Z" fill="url(#paint1_linear)"/>
<path d="M101.247 0H96.8723V4.44444H101.247V0Z" fill="url(#paint2_linear)"/>
<path d="M96.8723 4.44444H92.4978V8.88889H96.8723V4.44444Z" fill="url(#paint3_linear)"/>
<path d="M101.247 8.88889H96.8723V13.3333H101.247V8.88889Z" fill="url(#paint4_linear)"/>
<path d="M105.621 4.44444H101.247V8.88889H105.621V4.44444Z" fill="url(#paint5_linear)"/>
<defs>
<linearGradient id="paint0_linear" x1="19.4093" y1="54.6" x2="70.5149" y2="141.138" gradientUnits="userSpaceOnUse">
<stop stop-color="#C29425"/>
<stop offset="0.197917" stop-color="#D6AF45"/>
<stop offset="0.283646" stop-color="#F6DA77"/>
<stop offset="0.502841" stop-color="#FFEE9E"/>
<stop offset="0.743955" stop-color="#F6DA77"/>
<stop offset="0.786458" stop-color="#DCB84F"/>
<stop offset="1" stop-color="#C29425"/>
</linearGradient>
<linearGradient id="paint1_linear" x1="78.8434" y1="6.57143" x2="115.937" y2="15.2779" gradientUnits="userSpaceOnUse">
<stop stop-color="#C29425"/>
<stop offset="0.197917" stop-color="#D6AF45"/>
<stop offset="0.283646" stop-color="#F6DA77"/>
<stop offset="0.502841" stop-color="#FFEE9E"/>
<stop offset="0.743955" stop-color="#F6DA77"/>
<stop offset="0.786458" stop-color="#DCB84F"/>
<stop offset="1" stop-color="#C29425"/>
</linearGradient>
<linearGradient id="paint2_linear" x1="78.8434" y1="6.57143" x2="115.937" y2="15.2779" gradientUnits="userSpaceOnUse">
<stop stop-color="#C29425"/>
<stop offset="0.197917" stop-color="#D6AF45"/>
<stop offset="0.283646" stop-color="#F6DA77"/>
<stop offset="0.502841" stop-color="#FFEE9E"/>
<stop offset="0.743955" stop-color="#F6DA77"/>
<stop offset="0.786458" stop-color="#DCB84F"/>
<stop offset="1" stop-color="#C29425"/>
</linearGradient>
<linearGradient id="paint3_linear" x1="78.8434" y1="6.57143" x2="115.937" y2="15.2779" gradientUnits="userSpaceOnUse">
<stop stop-color="#C29425"/>
<stop offset="0.197917" stop-color="#D6AF45"/>
<stop offset="0.283646" stop-color="#F6DA77"/>
<stop offset="0.502841" stop-color="#FFEE9E"/>
<stop offset="0.743955" stop-color="#F6DA77"/>
<stop offset="0.786458" stop-color="#DCB84F"/>
<stop offset="1" stop-color="#C29425"/>
</linearGradient>
<linearGradient id="paint4_linear" x1="78.8434" y1="6.57143" x2="115.937" y2="15.2779" gradientUnits="userSpaceOnUse">
<stop stop-color="#C29425"/>
<stop offset="0.197917" stop-color="#D6AF45"/>
<stop offset="0.283646" stop-color="#F6DA77"/>
<stop offset="0.502841" stop-color="#FFEE9E"/>
<stop offset="0.743955" stop-color="#F6DA77"/>
<stop offset="0.786458" stop-color="#DCB84F"/>
<stop offset="1" stop-color="#C29425"/>
</linearGradient>
<linearGradient id="paint5_linear" x1="78.8434" y1="6.57143" x2="115.937" y2="15.2779" gradientUnits="userSpaceOnUse">
<stop stop-color="#C29425"/>
<stop offset="0.197917" stop-color="#D6AF45"/>
<stop offset="0.283646" stop-color="#F6DA77"/>
<stop offset="0.502841" stop-color="#FFEE9E"/>
<stop offset="0.743955" stop-color="#F6DA77"/>
<stop offset="0.786458" stop-color="#DCB84F"/>
<stop offset="1" stop-color="#C29425"/>
</linearGradient>
</defs>
</svg>
