<svg width="22" height="19" viewBox="0 0 22 19" fill="none" xmlns="http://www.w3.org/2000/svg">
<path fill-rule="evenodd" clip-rule="evenodd" d="M13 4.21513C13 4.45384 13.0303 4.68666 13.0879 4.9111L8.01694 7.01684C7.28363 6.31788 6.20393 5.87614 5 5.87614C2.79086 5.87614 1 7.36346 1 9.19816C1 11.0329 2.79086 12.5202 5 12.5202C6.20393 12.5202 7.28363 12.0784 8.01694 11.3795L13.0879 13.4852C13.0303 13.7097 13 13.9425 13 14.1812C13 16.0159 14.7909 17.5032 17 17.5032C19.2091 17.5032 21 16.0159 21 14.1812C21 12.3465 19.2091 10.8592 17 10.8592C15.7961 10.8592 14.7164 11.3009 13.9831 11.9999L8.91208 9.89413C8.96968 9.66969 9 9.43687 9 9.19816C9 8.95946 8.96968 8.72663 8.91208 8.50219L13.9831 6.39646C14.7164 7.09542 15.7961 7.53715 17 7.53715C19.2091 7.53715 21 6.04983 21 4.21513C21 2.38043 19.2091 0.893112 17 0.893112C14.7909 0.893112 13 2.38043 13 4.21513ZM7 9.19816C7 10.1155 6.10457 10.8592 5 10.8592C3.89543 10.8592 3 10.1155 3 9.19816C3 8.28081 3.89543 7.53715 5 7.53715C6.10457 7.53715 7 8.28081 7 9.19816ZM17 5.87614C18.1046 5.87614 19 5.13248 19 4.21513C19 3.29778 18.1046 2.55412 17 2.55412C15.8954 2.55412 15 3.29778 15 4.21513C15 5.13248 15.8954 5.87614 17 5.87614ZM19 14.1812C19 15.0985 18.1046 15.8422 17 15.8422C15.8954 15.8422 15 15.0985 15 14.1812C15 13.2638 15.8954 12.5202 17 12.5202C18.1046 12.5202 19 13.2638 19 14.1812Z" fill="#BC8822" stroke="#BC8822"/>
</svg>
