<svg width="224" height="40" viewBox="0 0 224 40" fill="none" xmlns="http://www.w3.org/2000/svg">
<path d="M51.1133 26.9492L52.9297 26.5977V14.3516L51.1133 14V11.9375H58.0859V14L56.3516 14.3516V18.9102H57.8867L61.0859 14.3047C61.7656 13.3516 62.3672 12.6914 62.8906 12.3242C63.4141 11.957 64.1094 11.7734 64.9766 11.7734C65.375 11.7734 65.7461 11.8281 66.0898 11.9375C66.4336 12.0469 66.75 12.1914 67.0391 12.3711L66.4648 14.9375C66.2148 14.8828 66.043 14.8477 65.9492 14.832C65.8633 14.8086 65.7422 14.7969 65.5859 14.7969C65.2266 14.7969 64.8945 14.8984 64.5898 15.1016C64.2852 15.3047 63.918 15.6836 63.4883 16.2383L60.8164 19.8945L65.5391 26.6562L67.332 26.9492V29H60.5703V26.9492L61.543 26.8086L58.3555 22.0156H56.3516V26.5977L58.0859 26.9492V29H51.1133V26.9492ZM83.4922 20.5977C83.4922 23.0977 82.7773 25.1641 81.3477 26.7969C79.918 28.4297 78.0469 29.2461 75.7344 29.2461C73.4297 29.2461 71.5664 28.4297 70.1445 26.7969C68.7305 25.1641 68.0234 23.0977 68.0234 20.5977V20.3398C68.0234 17.8555 68.7305 15.793 70.1445 14.1523C71.5586 12.5117 73.418 11.6914 75.7227 11.6914C78.0352 11.6914 79.9062 12.5117 81.3359 14.1523C82.7734 15.793 83.4922 17.8555 83.4922 20.3398V20.5977ZM80.082 20.3164C80.082 18.5508 79.7148 17.1172 78.9805 16.0156C78.2461 14.9141 77.1602 14.3633 75.7227 14.3633C74.2852 14.3633 73.2109 14.9102 72.5 16.0039C71.7969 17.0977 71.4453 18.5352 71.4453 20.3164V20.5977C71.4453 22.3945 71.8008 23.8438 72.5117 24.9453C73.2305 26.0391 74.3047 26.5859 75.7344 26.5859C77.1797 26.5859 78.2656 26.0391 78.9922 24.9453C79.7188 23.8438 80.082 22.3945 80.082 20.5977V20.3164ZM92.9844 11.9375C94.9375 11.9375 96.4766 12.4414 97.6016 13.4492C98.7344 14.4492 99.3008 15.7617 99.3008 17.3867C99.3008 19.0195 98.7344 20.332 97.6016 21.3242C96.4766 22.3164 94.9375 22.8125 92.9844 22.8125H90.1016V26.5977L91.9297 26.9492V29H84.8633V26.9492L86.6797 26.5977V14.3516L84.8633 14V11.9375H86.6797H92.9844ZM90.1016 20.1758H92.9844C93.9375 20.1758 94.6562 19.918 95.1406 19.4023C95.6328 18.8789 95.8789 18.2148 95.8789 17.4102C95.8789 16.5898 95.6328 15.9141 95.1406 15.3828C94.6562 14.8438 93.9375 14.5742 92.9844 14.5742H90.1016V20.1758ZM97.4609 26.9492L98.6797 26.7734L103.871 11.9375H107.375L112.531 26.7734L113.75 26.9492V29H107.938V26.9492L109.121 26.7383L108.371 24.3945H102.84L102.09 26.7383L103.273 26.9492V29H97.4609V26.9492ZM103.648 21.875H107.562L105.641 15.8633H105.57L103.648 21.875ZM114.887 14V11.9375H121.953V14L120.125 14.3516V19.2734H127.086V14.3516L125.258 14V11.9375H127.086H130.496H132.324V14L130.496 14.3516V26.5977L132.324 26.9492V29H125.258V26.9492L127.086 26.5977V21.9102H120.125V26.5977L121.953 26.9492V29H114.887V26.9492L116.703 26.5977V14.3516L114.887 14ZM147.664 11.9375C149.617 11.9375 151.156 12.4414 152.281 13.4492C153.414 14.4492 153.98 15.7617 153.98 17.3867C153.98 19.0195 153.414 20.332 152.281 21.3242C151.156 22.3164 149.617 22.8125 147.664 22.8125H144.781V26.5977L146.609 26.9492V29H139.543V26.9492L141.359 26.5977V14.3516L139.543 14V11.9375H141.359H147.664ZM144.781 20.1758H147.664C148.617 20.1758 149.336 19.918 149.82 19.4023C150.312 18.8789 150.559 18.2148 150.559 17.4102C150.559 16.5898 150.312 15.9141 149.82 15.3828C149.336 14.8438 148.617 14.5742 147.664 14.5742H144.781V20.1758ZM170.668 14L169.004 14.2227L164.141 25.7656C163.641 26.8828 163.055 27.7422 162.383 28.3438C161.711 28.9453 160.75 29.2461 159.5 29.2461C159.305 29.2461 159.082 29.2383 158.832 29.2227C158.59 29.2148 158.406 29.2031 158.281 29.1875L158.258 26.5742C158.344 26.5898 158.492 26.6016 158.703 26.6094C158.914 26.6172 159.074 26.6211 159.184 26.6211C159.801 26.6211 160.262 26.4844 160.566 26.2109C160.879 25.9375 161.141 25.5234 161.352 24.9688L161.609 24.3242L156.711 14.2461L154.895 14V11.9375H161.164V14L160.309 14.1641L162.781 19.5195L163.051 20.4219H163.121L165.477 14.1992L164.457 14V11.9375H170.668V14ZM181.484 26.9492L183.301 26.5977V22.4258C182.777 22.5508 182.195 22.6484 181.555 22.7188C180.914 22.7812 180.344 22.8125 179.844 22.8125C177.75 22.8125 176.129 22.3594 174.98 21.4531C173.84 20.5469 173.27 19.1445 173.27 17.2461V14.3516L171.441 14V11.9375H176.68H178.508V14L176.68 14.3516V17.2461C176.68 18.3555 176.93 19.1211 177.43 19.543C177.93 19.9648 178.734 20.1758 179.844 20.1758C180.328 20.1758 180.895 20.1445 181.543 20.082C182.199 20.0117 182.785 19.9141 183.301 19.7891V14.3516L181.484 14V11.9375H183.301H186.723H188.551V14L186.723 14.3516V26.5977L188.551 26.9492V29H181.484V26.9492ZM189.793 26.9492L191.609 26.5977V14.3516L189.793 14V11.9375H196.766V14L195.031 14.3516V18.9102H196.566L199.766 14.3047C200.445 13.3516 201.047 12.6914 201.57 12.3242C202.094 11.957 202.789 11.7734 203.656 11.7734C204.055 11.7734 204.426 11.8281 204.77 11.9375C205.113 12.0469 205.43 12.1914 205.719 12.3711L205.145 14.9375C204.895 14.8828 204.723 14.8477 204.629 14.832C204.543 14.8086 204.422 14.7969 204.266 14.7969C203.906 14.7969 203.574 14.8984 203.27 15.1016C202.965 15.3047 202.598 15.6836 202.168 16.2383L199.496 19.8945L204.219 26.6562L206.012 26.9492V29H199.25V26.9492L200.223 26.8086L197.035 22.0156H195.031V26.5977L196.766 26.9492V29H189.793V26.9492ZM206.773 26.9492L207.992 26.7734L213.184 11.9375H216.688L221.844 26.7734L223.062 26.9492V29H217.25V26.9492L218.434 26.7383L217.684 24.3945H212.152L211.402 26.7383L212.586 26.9492V29H206.773V26.9492ZM212.961 21.875H216.875L214.953 15.8633H214.883L212.961 21.875Z" fill="url(#paint0_linear)"/>
<path d="M26.2467 24.4444C17.8062 24.4444 10.9361 17.4644 10.9361 8.88889C10.9361 8.09556 11.0105 7.24889 11.1658 6.3L12.0822 0.71333L7.6706 4.17778C2.79528 8.00666 0 13.7711 0 20C0 31.0289 8.82983 40 19.685 40C29.3285 40 37.4869 32.9867 39.0792 23.32L40 17.7289L35.584 21.1956C32.8762 23.32 29.6479 24.4444 26.2467 24.4444ZM19.685 35.5556C11.2445 35.5556 4.37445 28.5756 4.37445 20C4.37445 16.9978 5.21216 14.1311 6.75197 11.6778C8.09274 21.3911 16.3233 28.8889 26.2467 28.8889C28.5827 28.8889 30.8574 28.4778 33.0009 27.6756C30.3587 32.4422 25.3521 35.5556 19.685 35.5556Z" fill="url(#paint1_linear)"/>
<path d="M26.2467 0H21.8723V4.44444H26.2467V0Z" fill="url(#paint2_linear)"/>
<path d="M21.8723 4.44444H17.4978V8.88889H21.8723V4.44444Z" fill="url(#paint3_linear)"/>
<path d="M26.2467 8.88889H21.8723V13.3333H26.2467V8.88889Z" fill="url(#paint4_linear)"/>
<path d="M30.6212 4.44444H26.2467V8.88889H30.6212V4.44444Z" fill="url(#paint5_linear)"/>
<defs>
<linearGradient id="paint0_linear" x1="66.7189" y1="11.9429" x2="110.419" y2="86.3073" gradientUnits="userSpaceOnUse">
<stop stop-color="#C29425"/>
<stop offset="0.197917" stop-color="#D6AF45"/>
<stop offset="0.283646" stop-color="#F6DA77"/>
<stop offset="0.502841" stop-color="#FFEE9E"/>
<stop offset="0.743955" stop-color="#F6DA77"/>
<stop offset="0.786458" stop-color="#DCB84F"/>
<stop offset="1" stop-color="#C29425"/>
</linearGradient>
<linearGradient id="paint1_linear" x1="3.84342" y1="6.57143" x2="40.9369" y2="15.2779" gradientUnits="userSpaceOnUse">
<stop stop-color="#C29425"/>
<stop offset="0.197917" stop-color="#D6AF45"/>
<stop offset="0.283646" stop-color="#F6DA77"/>
<stop offset="0.502841" stop-color="#FFEE9E"/>
<stop offset="0.743955" stop-color="#F6DA77"/>
<stop offset="0.786458" stop-color="#DCB84F"/>
<stop offset="1" stop-color="#C29425"/>
</linearGradient>
<linearGradient id="paint2_linear" x1="3.84342" y1="6.57143" x2="40.9369" y2="15.2779" gradientUnits="userSpaceOnUse">
<stop stop-color="#C29425"/>
<stop offset="0.197917" stop-color="#D6AF45"/>
<stop offset="0.283646" stop-color="#F6DA77"/>
<stop offset="0.502841" stop-color="#FFEE9E"/>
<stop offset="0.743955" stop-color="#F6DA77"/>
<stop offset="0.786458" stop-color="#DCB84F"/>
<stop offset="1" stop-color="#C29425"/>
</linearGradient>
<linearGradient id="paint3_linear" x1="3.84342" y1="6.57143" x2="40.9369" y2="15.2779" gradientUnits="userSpaceOnUse">
<stop stop-color="#C29425"/>
<stop offset="0.197917" stop-color="#D6AF45"/>
<stop offset="0.283646" stop-color="#F6DA77"/>
<stop offset="0.502841" stop-color="#FFEE9E"/>
<stop offset="0.743955" stop-color="#F6DA77"/>
<stop offset="0.786458" stop-color="#DCB84F"/>
<stop offset="1" stop-color="#C29425"/>
</linearGradient>
<linearGradient id="paint4_linear" x1="3.84342" y1="6.57143" x2="40.9369" y2="15.2779" gradientUnits="userSpaceOnUse">
<stop stop-color="#C29425"/>
<stop offset="0.197917" stop-color="#D6AF45"/>
<stop offset="0.283646" stop-color="#F6DA77"/>
<stop offset="0.502841" stop-color="#FFEE9E"/>
<stop offset="0.743955" stop-color="#F6DA77"/>
<stop offset="0.786458" stop-color="#DCB84F"/>
<stop offset="1" stop-color="#C29425"/>
</linearGradient>
<linearGradient id="paint5_linear" x1="3.84342" y1="6.57143" x2="40.9369" y2="15.2779" gradientUnits="userSpaceOnUse">
<stop stop-color="#C29425"/>
<stop offset="0.197917" stop-color="#D6AF45"/>
<stop offset="0.283646" stop-color="#F6DA77"/>
<stop offset="0.502841" stop-color="#FFEE9E"/>
<stop offset="0.743955" stop-color="#F6DA77"/>
<stop offset="0.786458" stop-color="#DCB84F"/>
<stop offset="1" stop-color="#C29425"/>
</linearGradient>
</defs>
</svg>
